<?xml version="1.0" encoding="UTF-8" standalone="no"?>
<!-- Created with Inkscape (http://www.inkscape.org/) -->

<svg
   width="512"
   height="512"
   viewBox="0 0 512 512"
   version="1.1"
   id="svg16224"
   inkscape:version="1.2.1 (9c6d41e, 2022-07-14)"
   sodipodi:docname="drawing-2024-06-03.svg"
   xmlns:inkscape="http://www.inkscape.org/namespaces/inkscape"
   xmlns:sodipodi="http://sodipodi.sourceforge.net/DTD/sodipodi-0.dtd"
   xmlns="http://www.w3.org/2000/svg"
   xmlns:svg="http://www.w3.org/2000/svg">
  <sodipodi:namedview
     id="namedview16226"
     pagecolor="#ffffff"
     bordercolor="#000000"
     borderopacity="0.25"
     inkscape:showpageshadow="2"
     inkscape:pageopacity="0.0"
     inkscape:pagecheckerboard="0"
     inkscape:deskcolor="#d1d1d1"
     inkscape:document-units="px"
     showgrid="false"
     inkscape:zoom="0.77504209"
     inkscape:cx="-32.901439"
     inkscape:cy="362.56095"
     inkscape:window-width="1920"
     inkscape:window-height="1027"
     inkscape:window-x="0"
     inkscape:window-y="25"
     inkscape:window-maximized="0"
     inkscape:current-layer="layer1" />
  <defs
     id="defs16221" />
  <g
     inkscape:label="Layer 1"
     inkscape:groupmode="layer"
     id="layer1">
    <rect
       style="fill:#75675f;fill-opacity:1;stroke-width:2.62563"
       id="rect2996-7-5-6-5-4-4-5"
       width="512"
       height="512"
       x="0"
       y="0" />
    <path
       d="m 207.77212,204.44601 v 113.90432 q 0,8.50914 1.16029,10.9265 1.16034,2.41736 3.5777,3.77088 2.51402,1.35378 9.66926,1.35378 v 3.57768 h -44.67223 v -3.57768 h 1.83717 q 5.41483,0 8.21893,-1.54699 1.93386,-1.06357 3.09417,-3.86789 1.16029,-2.7073 1.16029,-10.63628 v -38.0971 q -8.79903,10.44309 -15.37419,14.3107 -6.57514,3.77115 -13.63372,3.77115 -12.86023,0 -23.01299,-11.70013 -10.0561,-11.69957 -10.0561,-31.32841 0,-22.52962 13.34367,-36.64684 13.34367,-14.21369 32.19883,-14.21369 5.51153,0 10.15278,1.54699 4.64128,1.54699 8.31563,4.64125 5.6082,-2.7073 10.73292,-6.18824 z m -15.95442,69.71574 v -41.57803 q 0,-7.25209 -1.93384,-11.40992 -1.83715,-4.15783 -6.67182,-7.05861 -4.83467,-2.90078 -10.92631,-2.90078 -10.82968,0 -18.5651,9.18576 -7.73548,9.18603 -7.73548,27.84776 0,17.8881 7.83216,27.17087 7.92885,9.28248 19.04855,9.28248 5.7049,0 10.15281,-2.41736 4.44786,-2.51409 8.79903,-8.12217 z"
       style="font-size:50.8px;line-height:0.85;font-family:'Times New Roman';-inkscape-font-specification:'Times New Roman, ';text-align:center;text-anchor:middle;fill:#f5a778;fill-opacity:1;stroke-width:1.37518"
       id="path954-3-5-9-6-3-6-3" />
    <path
       d="m 289.28446,347.06819 q -20.3056,27.07413 -65.1712,27.07413 -44.76895,0 -65.07454,-27.07413 h 4.06112 q 8.31563,7.15535 27.84765,11.31318 16.43785,3.48093 33.16577,3.48093 16.92129,0 33.26245,-3.48093 19.43531,-4.15783 27.84763,-11.31318 z"
       style="font-size:50.8px;line-height:0.85;font-family:'Times New Roman';-inkscape-font-specification:'Times New Roman, ';text-align:center;text-anchor:middle;fill:#78cbf5;fill-opacity:1;stroke-width:1.37518"
       id="path956-9-8-4-2-9-4-9" />
    <path
       d="m 357.54986,229.29598 q 0,28.62112 -17.79158,48.54018 -18.46836,20.78886 -46.70278,20.78886 -28.6212,0 -46.70281,-20.40218 Q 229.1413,258.594 229.1413,229.5862 q 0,-31.23196 21.27251,-50.95727 18.46837,-17.11474 44.18874,-17.11474 27.26752,0 45.44583,20.49894 17.50148,19.62857 17.50148,47.28285 z m -22.14278,2.61084 q 0,-26.39723 -8.21892,-42.35166 -10.73294,-20.98236 -34.42274,-20.98236 -17.59818,0 -28.23441,13.05365 -13.24696,16.24437 -13.24696,47.57279 0,32.19907 13.7304,49.41028 10.44289,13.15037 27.84763,13.15037 23.01301,0 33.84263,-19.53209 8.70237,-15.37427 8.70237,-40.32098 z m -31.81203,-2.70758 q 0,4.44805 -3.19086,7.63877 -3.0942,3.09426 -7.54211,3.09426 -4.35117,0 -7.54208,-3.19072 -3.19084,-3.191 -3.19084,-7.54231 0,-4.44777 3.09418,-7.54202 3.19086,-3.19073 7.63874,-3.19073 4.54459,0 7.63877,3.09426 3.0942,3.09398 3.0942,7.63849 z m 53.95481,0.0959 q 0,28.6214 -17.79155,48.54018 -18.46839,20.78886 -46.70281,20.78886 -28.6212,0 -46.70281,-20.40218 -17.21139,-19.62857 -17.21139,-48.63664 0,-31.23197 21.27251,-50.95727 18.4684,-17.11474 44.18874,-17.11474 27.26752,0 45.44583,20.49894 17.50148,19.62884 17.50148,47.28285 z m -22.14275,2.61084 q 0,-26.39724 -8.21892,-42.35166 -10.73297,-20.98236 -34.42274,-20.98236 -17.59821,0 -28.23444,13.05365 -13.24694,16.24437 -13.24694,47.57307 0,32.19879 13.73041,49.41027 10.44286,13.1501 27.84763,13.1501 23.01298,0 33.8426,-19.53209 8.7024,-15.374 8.7024,-40.32098 z m -31.81206,-2.7073 q 0,4.44777 -3.19086,7.63876 -3.0942,3.09399 -7.54208,3.09399 -4.3512,0 -7.54209,-3.19073 -3.19086,-3.19099 -3.19086,-7.54202 0,-4.44805 3.09418,-7.54203 3.19086,-3.191 7.63877,-3.191 4.54456,0 7.63874,3.09426 3.0942,3.09398 3.0942,7.63877 z"
       style="font-size:50.8px;line-height:0.85;font-family:'Times New Roman';-inkscape-font-specification:'Times New Roman, ';text-align:center;text-anchor:middle;fill:#f5a778;fill-opacity:1;stroke-width:1.37518"
       id="path958-9-1-1-85-0-3-0" />
    <path
       style="font-size:50.8px;line-height:0.85;font-family:'Times New Roman';-inkscape-font-specification:'Times New Roman, ';text-align:center;text-anchor:middle;fill:#78cbf5;fill-opacity:1;stroke-width:1.37518"
       d="m 303.59505,229.19924 q 0,4.44805 -3.19086,7.63877 -3.0942,3.09426 -7.54211,3.09426 -4.35117,0 -7.54208,-3.19072 -3.19084,-3.191 -3.19084,-7.54231 0,-4.44777 3.09418,-7.54202 3.19086,-3.19073 7.63874,-3.19073 4.54459,0 7.63877,3.09426 3.0942,3.09398 3.0942,7.63849 z"
       id="path4881-9-4-3-9-5-8-5" />
  </g>
</svg>
