<?xml version="1.0" encoding="UTF-8" standalone="no"?>
<!-- Created with Inkscape (http://www.inkscape.org/) -->

<svg
   width="20mm"
   height="20mm"
   viewBox="0 0 20 20"
   version="1.1"
   id="svg6287"
   inkscape:version="1.2.1 (9c6d41e, 2022-07-14)"
   sodipodi:docname="cpu3.svg"
   xmlns:inkscape="http://www.inkscape.org/namespaces/inkscape"
   xmlns:sodipodi="http://sodipodi.sourceforge.net/DTD/sodipodi-0.dtd"
   xmlns:xlink="http://www.w3.org/1999/xlink"
   xmlns="http://www.w3.org/2000/svg"
   xmlns:svg="http://www.w3.org/2000/svg">
  <sodipodi:namedview
     id="namedview6289"
     pagecolor="#ffffff"
     bordercolor="#000000"
     borderopacity="0.25"
     inkscape:showpageshadow="2"
     inkscape:pageopacity="0.0"
     inkscape:pagecheckerboard="0"
     inkscape:deskcolor="#d1d1d1"
     inkscape:document-units="mm"
     showgrid="false"
     showguides="false"
     inkscape:zoom="5.5804541"
     inkscape:cx="55.999027"
     inkscape:cy="48.203962"
     inkscape:window-width="1440"
     inkscape:window-height="847"
     inkscape:window-x="0"
     inkscape:window-y="25"
     inkscape:window-maximized="0"
     inkscape:current-layer="layer1">
    <sodipodi:guide
       position="10.009103,16.803815"
       orientation="1,0"
       id="guide6408"
       inkscape:locked="false" />
    <sodipodi:guide
       position="19.999999,9.9908964"
       orientation="0,-1"
       id="guide6410"
       inkscape:locked="false" />
  </sodipodi:namedview>
  <defs
     id="defs6284">
    <linearGradient
       inkscape:collect="always"
       id="linearGradient4508">
      <stop
         style="stop-color:#f5cd78;stop-opacity:1;"
         offset="0"
         id="stop4504" />
      <stop
         style="stop-color:#f5a778;stop-opacity:1;"
         offset="1"
         id="stop4506" />
    </linearGradient>
    <linearGradient
       inkscape:collect="always"
       xlink:href="#linearGradient4508"
       id="linearGradient3045"
       gradientUnits="userSpaceOnUse"
       x1="7.2694559"
       y1="7.6705556"
       x2="15.70281"
       y2="14.744867"
       gradientTransform="matrix(1.0436774,0,0,1.0436774,-0.49630921,-0.3031916)" />
  </defs>
  <g
     inkscape:label="Layer 1"
     inkscape:groupmode="layer"
     id="layer1">
    <rect
       style="fill:#78cbf5;fill-opacity:1;stroke-width:0.0197893"
       width="10.132129"
       height="10.132129"
       x="-10.608519"
       y="11.689328"
       id="rect576-3-2"
       transform="matrix(0.89274106,-0.45057008,0.89274106,0.45057008,0,0)" />
    <path
       id="path6540-0-5-49"
       style="fill:url(#linearGradient3045);fill-opacity:1;stroke-width:2.08736"
       d="m 18.534023,9.9843797 -0.376991,0.1935273 v 0.702735 l 0.376991,-0.193527 z M 1.4729711,10.015503 v 0.702736 l 0.3769923,0.193527 V 10.20903 Z m 16.5136999,0.249924 -0.376524,0.193059 v 0.702735 l 0.376524,-0.193059 z m -15.9663477,0.03112 v 0.702735 l 0.3765241,0.193059 V 10.48961 Z M 17.439086,10.54624 17.062561,10.7393 v 0.702735 l 0.376525,-0.193059 z M 2.5676756,10.577364 V 11.2801 l 0.3765241,0.193293 v -0.70297 z m 14.3240574,0.249924 -0.376524,0.193059 v 0.702735 l 0.376524,-0.193059 z m -13.7764715,0.03112 v 0.702735 l 0.37629,0.19306 V 11.05147 Z m 13.2295875,0.249456 -0.376992,0.193527 v 0.702736 l 0.376992,-0.193528 z m -12.682703,0.03113 v 0.702736 l 0.3769919,0.193526 V 11.33252 Z m 12.135351,0.249689 -0.376525,0.193059 v 0.702737 l 0.376525,-0.193059 z m -11.5879992,0.03113 v 0.702736 l 0.3765241,0.193293 v -0.702735 z m 11.0404132,0.249924 -0.37629,0.19306 v 0.702735 l 0.37629,-0.193059 z M 4.75685,11.700866 v 0.702736 l 0.376524,0.193059 v -0.702736 z m 9.946176,0.249925 -0.376991,0.193058 v 0.702736 l 0.376991,-0.193527 z m -9.399292,0.03112 v 0.702268 l 0.3769923,0.193528 v -0.702736 z m 8.851941,0.249925 -0.376524,0.193059 v 0.702268 l 0.376524,-0.193294 z m -8.3043546,0.03113 v 0.702033 l 0.3762899,0.193294 v -0.702268 z m 7.7654256,0.24501 -0.37629,0.193526 v 0.702267 l 0.37629,-0.193058 z m -7.2267321,0.03113 v 0.702735 l 0.376524,0.193047 V 12.73262 Z m 6.6798481,0.24969 -0.376991,0.193762 v 0.702267 l 0.376991,-0.193762 z m -6.1329637,0.03136 v 0.702034 l 0.3769919,0.193761 v -0.702279 z m 5.5856117,0.249691 -0.376524,0.193058 v 0.702268 l 0.376524,-0.193059 z m -5.0382599,0.03112 v 0.702254 l 0.3765241,0.19306 v -0.702267 z m 4.4909079,0.249925 -0.376523,0.193059 v 0.702268 l 0.376523,-0.19306 z m -3.9433215,0.03113 v 0.702267 l 0.37629,0.19306 v -0.702268 z m 3.3964375,0.249221 -0.376992,0.193761 v 0.702268 l 0.376992,-0.193059 z m -2.8495535,0.03136 v 0.702735 l 0.3769919,0.193059 V 13.85613 Z m 2.3022015,0.249689 -0.376524,0.19306 v 0.702735 l 0.376524,-0.193527 z m -1.7548496,0.03113 v 0.702267 l 0.376524,0.193528 V 14.13648 Z M 8.9065481,8.2781959 c -0.066266,0.033447 -0.125514,0.068309 -0.1780455,0.1045606 -0.0075,0.00518 -0.014962,0.010457 -0.022175,0.0157 -0.014459,0.010465 -0.028371,0.021034 -0.041698,0.031735 -0.03332,0.026754 -0.063041,0.054161 -0.089354,0.082344 -0.026314,0.028185 -0.0492,0.057072 -0.068505,0.086688 -0.00385,0.00592 -0.00767,0.011891 -0.011253,0.017869 -0.00716,0.01196 -0.013649,0.023973 -0.019694,0.036159 -0.00604,0.012191 -0.011462,0.02458 -0.016383,0.036997 -0.00245,0.00621 -0.00478,0.012439 -0.00695,0.018707 -0.00217,0.00626 -0.00439,0.012548 -0.00628,0.018874 -0.0019,0.00632 -0.00367,0.012661 -0.00529,0.019042 -0.00486,0.019141 -0.00842,0.03855 -0.010755,0.058209 -7.697e-4,0.00655 -0.00131,0.013182 -0.00181,0.019793 -5.887e-4,0.00761 -0.00114,0.015156 -0.00131,0.022715 -3.877e-4,0.01512 3.53e-5,0.030123 0.00117,0.045012 5.435e-4,0.00745 0.00136,0.014826 0.00231,0.022217 0.00376,0.029557 0.010402,0.058706 0.020188,0.087355 0.00245,0.00716 0.00512,0.014273 0.00795,0.021379 0.00281,0.0071 0.00589,0.014246 0.0091,0.021297 0.0064,0.014097 0.013603,0.028054 0.02151,0.041924 0.00394,0.00693 0.00807,0.013748 0.012412,0.020627 l 1.653e-4,8.38e-5 c 0.00431,0.00685 0.00872,0.013671 0.013404,0.02046 l 1.658e-4,8.33e-5 c 0.014129,0.020469 0.029806,0.040674 0.047324,0.060631 0.01752,0.019957 0.036671,0.039682 0.057583,0.059128 0.00696,0.00649 0.014165,0.012951 0.02151,0.019372 0.00735,0.00643 0.014944,0.012756 0.022669,0.019124 0.00774,0.00637 0.015727,0.012729 0.023829,0.019042 0.032405,0.025246 0.067628,0.05007 0.1060653,0.074412 0.00961,0.00608 0.019459,0.012182 0.029457,0.018209 0.00998,0.00603 0.020233,0.011991 0.030598,0.017964 0.010361,0.00598 0.020848,0.011878 0.031599,0.017792 0.01075,0.00591 0.021627,0.011855 0.032767,0.017702 0.01112,0.00586 0.02244,0.011647 0.03393,0.017448 0.01067,0.00539 0.0215,0.010719 0.03225,0.015958 0.01077,0.00524 0.0214,0.010379 0.03227,0.015446 0.03257,0.015242 0.06574,0.029829 0.09912,0.043677 0.0445,0.018467 0.08957,0.035697 0.135522,0.051694 0.01149,0.00398 0.023,0.00793 0.03458,0.011774 0.02315,0.00769 0.04648,0.015061 0.06999,0.022134 0.02351,0.00708 0.04728,0.013753 0.07116,0.02021 0.03582,0.00968 0.07209,0.01868 0.108714,0.026976 0.01221,0.00276 0.02427,0.0055 0.03657,0.0081 l 1.67e-4,8.33e-5 c 0.01223,0.00258 0.02474,0.00507 0.03707,0.00752 0.01239,0.00245 0.02475,0.00479 0.03723,0.0071 0.01248,0.00231 0.02499,0.00461 0.03756,0.00676 0.02514,0.00431 0.05045,0.00827 0.07595,0.011941 0.01275,0.00181 0.02555,0.00348 0.03839,0.00518 l 1.65e-4,8.38e-5 c 0.02568,0.00335 0.05141,0.00643 0.07744,0.00919 0.01302,0.00136 0.02611,0.00272 0.03922,0.00394 0.01311,0.00122 0.02618,0.00226 0.03938,0.00335 0.0132,0.00109 0.02642,0.00208 0.03972,0.00298 0.02658,0.00181 0.05332,0.0034 0.08025,0.00459 0.01347,5.887e-4 0.02714,0.00104 0.04071,0.0015 0.01416,4.342e-4 0.02815,8.15e-4 0.04219,0.00109 0.01405,2.514e-4 0.02809,4.343e-4 0.04203,4.981e-4 0.05575,2.971e-4 0.110543,-9.057e-4 0.164478,-0.00348 0.02697,-0.00131 0.05374,-0.0029 0.08025,-0.00492 0.02652,-0.002 0.05287,-0.00435 0.07893,-0.0071 0.02605,-0.00272 0.05184,-0.0059 0.07744,-0.00936 0.0256,-0.00345 0.05096,-0.00719 0.07612,-0.011357 0.03772,-0.00625 0.07498,-0.013263 0.111694,-0.021129 0.09788,-0.02098 0.192162,-0.047783 0.282789,-0.080256 0.01132,-0.00407 0.02254,-0.00812 0.03376,-0.012358 0.01122,-0.00426 0.02231,-0.00861 0.03343,-0.013029 0.03331,-0.013255 0.06618,-0.027302 0.09845,-0.042173 0.01077,-0.00495 0.02146,-0.010058 0.0321,-0.015197 0.01064,-0.00514 0.02122,-0.010388 0.03176,-0.015704 0.06235,-0.031468 0.11842,-0.064105 0.168117,-0.097879 0.01656,-0.011267 0.03234,-0.022642 0.04749,-0.034158 0.0076,-0.00576 0.01511,-0.011465 0.02234,-0.01729 0.01446,-0.011638 0.02815,-0.02343 0.04121,-0.035326 0.01305,-0.011901 0.02542,-0.023923 0.03707,-0.036078 0.0058,-0.00608 0.01141,-0.012231 0.01688,-0.018371 0.02736,-0.030703 0.05043,-0.062152 0.06901,-0.094454 0.0037,-0.00646 0.0072,-0.01302 0.01059,-0.01954 0.01009,-0.019572 0.01856,-0.039311 0.02548,-0.059462 0.0023,-0.00672 0.0045,-0.013513 0.0065,-0.020292 0.0039,-0.013558 0.0071,-0.027269 0.0096,-0.041091 0.0025,-0.013816 0.0043,-0.027768 0.0055,-0.041838 5.43e-4,-0.00704 8.15e-4,-0.014111 10e-4,-0.021211 2.01e-4,-0.0071 3.17e-4,-0.014296 1.63e-4,-0.021465 -1.51e-4,-0.00716 -4.98e-4,-0.014314 -10e-4,-0.021546 -4.98e-4,-0.00722 -0.0011,-0.014423 -0.002,-0.021714 -7.71e-4,-0.007 -0.0018,-0.014011 -0.0028,-0.020962 -0.0011,-0.00695 -0.0024,-0.013898 -0.0038,-0.020794 -0.0014,-0.0069 -0.0028,-0.01378 -0.0045,-0.020627 -0.0017,-0.00685 -0.0038,-0.013667 -0.0058,-0.020464 -0.01201,-0.040765 -0.0293,-0.08056 -0.05229,-0.1194251 -0.0039,-0.00648 -0.0078,-0.012951 -0.01192,-0.019377 -0.0042,-0.00643 -0.0085,-0.012834 -0.01291,-0.01921 -0.0044,-0.00637 -0.0091,-0.01272 -0.0139,-0.019042 -0.0047,-0.00632 -0.0095,-0.012607 -0.01456,-0.018874 -0.0051,-0.00626 -0.0102,-0.012494 -0.01556,-0.018711 -0.0054,-0.00621 -0.01088,-0.012376 -0.01655,-0.018539 -0.0056,-0.00616 -0.01158,-0.012263 -0.01754,-0.018371 -0.01789,-0.018326 -0.03711,-0.036521 -0.05775,-0.054367 -0.0068,-0.00596 -0.014,-0.011805 -0.02118,-0.017706 -0.01437,-0.011796 -0.02926,-0.023408 -0.04485,-0.034991 -0.0078,-0.0058 -0.01573,-0.011634 -0.02383,-0.017371 -0.0081,-0.00574 -0.01625,-0.011434 -0.02466,-0.017122 -0.04201,-0.028429 -0.08805,-0.056236 -0.137673,-0.083347 -0.0099,-0.00542 -0.01987,-0.010841 -0.03011,-0.016202 -0.01023,-0.00537 -0.02058,-0.010714 -0.03112,-0.01603 -0.01012,-0.00511 -0.02038,-0.010153 -0.0306,-0.01512 l -1.65e-4,-8.37e-5 c -0.01029,-0.00499 -0.02069,-0.00986 -0.03111,-0.014699 -0.0312,-0.014518 -0.06282,-0.028402 -0.09498,-0.041589 -0.0429,-0.017584 -0.08658,-0.033977 -0.131218,-0.04919 -0.01117,-0.00381 -0.02249,-0.00754 -0.03376,-0.011189 -0.01127,-0.00367 -0.02238,-0.00718 -0.03375,-0.010687 -0.02276,-0.00701 -0.04582,-0.013708 -0.069,-0.020129 -0.02319,-0.00642 -0.0467,-0.012625 -0.07033,-0.018453 -0.02362,-0.00583 -0.04742,-0.011298 -0.07148,-0.016538 -0.02406,-0.00524 -0.04831,-0.010225 -0.07281,-0.014866 -0.03675,-0.00697 -0.07413,-0.013246 -0.111859,-0.018874 -0.03772,-0.00563 -0.0758,-0.010569 -0.114506,-0.014866 -0.06452,-0.00716 -0.130498,-0.012494 -0.197738,-0.015949 -0.02689,-0.0014 -0.05391,-0.00249 -0.08125,-0.00326 -0.02847,-8.604e-4 -0.05661,-0.0014 -0.08455,-0.00159 -0.0559,-3.432e-4 -0.110852,6.793e-4 -0.164644,0.00308 -0.01344,5.887e-4 -0.02673,0.00122 -0.04004,0.002 -0.01331,7.699e-4 -0.02669,0.00163 -0.03988,0.00258 -0.03956,0.00281 -0.07845,0.00648 -0.116822,0.010855 -0.05117,0.00583 -0.101346,0.013046 -0.150414,0.021632 -0.02454,0.00431 -0.0488,0.00889 -0.07281,0.013866 -0.012,0.00249 -0.02387,0.00503 -0.03575,0.00769 C 9.295542,8.131899 9.226624,8.150995 9.160109,8.173143 9.104689,8.1916 9.050923,8.212277 8.998775,8.235027 8.967495,8.24868 8.936715,8.263008 8.906607,8.278205 Z m 0.092332,0.079339 c 0.03488,-0.017602 0.07053,-0.03366 0.106896,-0.048103 0.0091,-0.00362 0.01814,-0.00702 0.0273,-0.010438 0.02754,-0.010248 0.05552,-0.019671 0.08389,-0.028143 0.0095,-0.00281 0.01891,-0.00555 0.02847,-0.00819 0.0096,-0.00262 0.01931,-0.00516 0.02895,-0.0076 0.01928,-0.00486 0.03859,-0.00929 0.05824,-0.013358 0.0393,-0.00815 0.07934,-0.014717 0.120133,-0.019712 0.03059,-0.00376 0.06174,-0.00663 0.09316,-0.0086 0.01048,-6.793e-4 0.02088,-0.00122 0.03144,-0.00167 0.01057,-4.529e-4 0.02128,-8.151e-4 0.03194,-0.00109 0.01066,-2.744e-4 0.02135,-4.342e-4 0.0321,-4.981e-4 0.01075,-6.66e-5 0.02142,-4.71e-5 0.03226,8.2e-5 0.01085,1.313e-4 0.02183,3.428e-4 0.03276,6.793e-4 0.03281,9.977e-4 0.06598,0.00295 0.09961,0.00568 0.03363,0.00276 0.06763,0.00641 0.102096,0.010941 0.01148,0.0015 0.023,0.00303 0.03458,0.00476 0.01158,0.00172 0.02324,0.00353 0.03491,0.00543 0.03559,0.00575 0.0714,0.012313 0.1073909,0.019793 0.018,0.00376 0.036,0.00777 0.05411,0.011946 0.0181,0.00417 0.0364,0.00859 0.0546,0.013196 0.03641,0.00921 0.07289,0.0192 0.109707,0.03015 l 1.65e-4,8.34e-5 c 0.01835,0.00546 0.03682,0.011149 0.05527,0.017035 0.09255,0.029534 0.186357,0.064441 0.281467,0.1048097 0.03803,0.016152 0.07639,0.033229 0.114838,0.05111 0.01924,0.00893 0.03842,0.0181 0.05776,0.027469 0.01934,0.00937 0.03882,0.018919 0.05826,0.028724 0.01837,0.00927 0.03625,0.018562 0.05377,0.027814 0.01754,0.00924 0.03461,0.018503 0.05129,0.027728 0.03336,0.018458 0.06498,0.036911 0.09498,0.055286 0.015,0.00919 0.02968,0.018309 0.04385,0.027478 0.02832,0.018336 0.05497,0.036616 0.07992,0.054869 0.01246,0.00914 0.02444,0.018286 0.03607,0.027392 0.01164,0.00911 0.02296,0.018141 0.03376,0.027225 0.04318,0.036345 0.07947,0.072546 0.10921,0.1085677 0.0074,0.00901 0.01442,0.017987 0.02102,0.026976 l 1.65e-4,8.38e-5 c 0.0066,0.00895 0.01281,0.017959 0.01853,0.02689 0.0057,0.00896 0.01098,0.017946 0.01588,0.02689 0.0064,0.01128 0.01209,0.022379 0.01704,0.033487 0.0025,0.00555 0.0047,0.011108 0.0067,0.016619 l 1.64e-4,8.38e-5 c 0.0021,0.00548 0.0041,0.011013 0.0058,0.016452 0.0018,0.00547 0.0032,0.010941 0.0046,0.01637 0.0028,0.010855 0.0046,0.021555 0.006,0.032237 0.0045,0.037391 2.56e-4,0.073686 -0.01307,0.1089852 -0.0038,0.010085 -0.0083,0.020152 -0.01356,0.030064 -0.0026,0.00496 -0.0055,0.00987 -0.0084,0.01478 -0.009,0.014744 -0.01966,0.029317 -0.03194,0.043677 -0.02046,0.023932 -0.04554,0.047284 -0.07512,0.070153 -0.02367,0.018295 -0.05026,0.036336 -0.07976,0.053949 -0.0074,0.00439 -0.01491,0.00876 -0.02265,0.013115 -0.0078,0.00435 -0.01572,0.00871 -0.02383,0.013029 -0.0081,0.00431 -0.01636,0.00858 -0.02483,0.012856 -0.0064,0.00322 -0.01271,0.0064 -0.0192,0.00952 -0.0065,0.00312 -0.01297,0.00619 -0.01953,0.00918 -0.0066,0.00299 -0.01324,0.00597 -0.01985,0.00885 -0.0067,0.0029 -0.01334,0.00566 -0.02003,0.00843 -0.0067,0.00276 -0.01325,0.00546 -0.02003,0.0081 -0.01352,0.0053 -0.02723,0.010365 -0.04104,0.015202 -0.0069,0.0024 -0.01404,0.00479 -0.02102,0.0071 -0.007,0.00231 -0.01379,0.00448 -0.02085,0.00668 -0.007,0.00217 -0.01423,0.00435 -0.02135,0.00643 -0.0071,0.00208 -0.01433,0.00407 -0.02151,0.00601 -0.0072,0.00195 -0.01426,0.00385 -0.02151,0.00568 -0.03631,0.00916 -0.07345,0.016809 -0.111527,0.023049 -0.01524,0.00249 -0.03064,0.00474 -0.04617,0.00676 -0.0078,9.978e-4 -0.0155,0.00204 -0.02333,0.00295 -0.0079,9.057e-4 -0.01576,0.00181 -0.02367,0.00258 -0.0079,7.697e-4 -0.01586,0.0015 -0.02383,0.00217 -0.0079,6.792e-4 -0.01595,0.00122 -0.02399,0.00176 -0.008,5.434e-4 -0.0162,9.978e-4 -0.02433,0.0014 -0.02434,0.00131 -0.04882,0.00208 -0.0738,0.00236 -0.0083,8.11e-5 -0.01692,1.196e-4 -0.02531,8.42e-5 -0.0084,-3.71e-5 -0.01669,-1.811e-4 -0.02515,-3.428e-4 -0.0085,-1.54e-4 -0.01711,-3.201e-4 -0.02565,-5.887e-4 -0.0085,-2.743e-4 -0.01704,-5.434e-4 -0.02565,-9.056e-4 -0.0086,-3.885e-4 -0.0173,-9.057e-4 -0.02598,-0.0014 -0.02277,-0.00131 -0.04567,-0.0029 -0.06851,-0.00484 -0.01142,-9.978e-4 -0.02265,-0.00204 -0.03409,-0.00317 -0.0343,-0.00345 -0.06866,-0.00767 -0.103089,-0.012612 -0.03442,-0.00494 -0.06903,-0.010596 -0.103585,-0.017036 -0.02304,-0.00431 -0.04607,-0.00891 -0.06916,-0.013866 -0.01155,-0.00249 -0.02302,-0.00512 -0.03458,-0.00777 -0.01157,-0.00262 -0.02317,-0.00537 -0.03475,-0.00819 -0.01159,-0.00281 -0.02316,-0.00571 -0.03475,-0.00868 -0.02318,-0.00597 -0.04626,-0.012249 -0.06949,-0.018874 -0.02324,-0.00663 -0.04653,-0.013585 -0.06983,-0.020881 -0.01165,-0.00367 -0.02342,-0.00737 -0.03508,-0.011194 -0.01166,-0.00381 -0.0234,-0.00771 -0.03508,-0.011693 -0.02336,-0.00796 -0.04675,-0.016261 -0.07016,-0.024888 -0.0117,-0.00431 -0.02336,-0.00872 -0.03508,-0.013196 -0.02345,-0.00896 -0.04699,-0.018263 -0.07049,-0.027895 -0.047,-0.019259 -0.09408,-0.039872 -0.141314,-0.0618 -0.03541,-0.016447 -0.07083,-0.033587 -0.106392,-0.051531 -0.01153,-0.00582 -0.02305,-0.011647 -0.03425,-0.017452 -0.03362,-0.017421 -0.06563,-0.034773 -0.0963,-0.052113 -0.02046,-0.011552 -0.04024,-0.023154 -0.0594,-0.034656 -0.02872,-0.017276 -0.05595,-0.034442 -0.08175,-0.051612 -0.01718,-0.011452 -0.03375,-0.022837 -0.04964,-0.034239 -0.01594,-0.011409 -0.0313,-0.022797 -0.04588,-0.034164 -0.02914,-0.022692 -0.05565,-0.045377 -0.079593,-0.067896 l -1.652e-4,-8.34e-5 c -0.00597,-0.0056 -0.011575,-0.011276 -0.017208,-0.016868 l -1.657e-4,-8.38e-5 c -0.033958,-0.033732 -0.061974,-0.067286 -0.084224,-0.100634 l -1.657e-4,-8.37e-5 c -0.00367,-0.00552 -0.00722,-0.011017 -0.010592,-0.016538 l -1.653e-4,-8.38e-5 c -0.00677,-0.011103 -0.012738,-0.022175 -0.018204,-0.033239 -0.010927,-0.022126 -0.019269,-0.044102 -0.024987,-0.06606 -0.00145,-0.00549 -0.00272,-0.010972 -0.00381,-0.016452 -9.057e-4,-0.00439 -0.00167,-0.00883 -0.00231,-0.013196 -0.002,-0.013096 -0.0029,-0.026056 -0.00281,-0.038836 3.17e-5,-0.00426 6.69e-5,-0.00847 3.296e-4,-0.012693 0.00104,-0.016895 0.00403,-0.033528 0.00877,-0.049859 0.00117,-0.00407 0.00258,-0.00815 0.00398,-0.012195 0.0014,-0.00403 0.00281,-0.00809 0.00448,-0.012109 0.00167,-0.00398 0.00345,-0.00805 0.00529,-0.012027 0.00186,-0.00398 0.00385,-0.00792 0.00596,-0.01186 0.00421,-0.00788 0.00877,-0.015646 0.013902,-0.023384 0.00513,-0.00774 0.010832,-0.015451 0.016877,-0.023049 0.00604,-0.00759 0.012558,-0.015093 0.019526,-0.022546 0.010452,-0.011186 0.021895,-0.022203 0.034416,-0.033071 0.00834,-0.00724 0.017204,-0.014441 0.026478,-0.021546 0.00462,-0.00358 0.00935,-0.00701 0.014233,-0.010524 0.00486,-0.00353 0.00979,-0.00704 0.014894,-0.010524 0.0051,-0.00348 0.010397,-0.00699 0.015704,-0.010447 0.0053,-0.00345 0.01083,-0.00686 0.01638,-0.01027 0.01109,-0.00683 0.02255,-0.013612 0.03458,-0.020296 0.006,-0.00335 0.01212,-0.00663 0.01836,-0.00994 0.0062,-0.00331 0.01272,-0.00659 0.0192,-0.00985 z M 7.5571328,9.7249065 C 7.33506,9.8369877 7.2291817,9.9749915 7.239429,10.138801 c 0.00911,0.163236 0.146176,0.31179 0.4115257,0.445713 0.2311849,0.11668 0.4749809,0.179891 0.7312159,0.18966 0.2573798,0.0092 0.4617715,-0.02444 0.6132348,-0.100885 0.08314,-0.04196 0.141216,-0.09358 0.174242,-0.155085 0.03189,-0.06208 0.03823,-0.150357 0.01886,-0.264739 l 0.672971,0.339651 c 0.09339,0.04713 0.1492326,0.08224 0.1674546,0.105228 0.01937,0.02357 0.02398,0.04423 0.01374,0.06205 -0.01481,0.02586 -0.0542,0.05492 -0.1179796,0.08711 l -0.03243,0.01637 0.06321,0.0319 0.7892956,-0.398361 -0.06321,-0.0319 c -0.08428,0.04253 -0.14937,0.06726 -0.194924,0.07416 -0.04441,0.0063 -0.08759,0.0058 -0.129729,-0.0017 -0.04214,-0.0075 -0.113404,-0.03652 -0.213623,-0.0871 L 8.1309897,9.4352868 8.0729094,9.464599 c -0.019359,0.051156 -0.046087,0.10148 -0.080253,0.1509096 -0.07972,0.00345 -0.1559634,0.01426 -0.2288464,0.032654 -0.072883,0.018395 -0.1417601,0.043984 -0.2066745,0.076748 z m 0.066685,0.087105 c 0.071745,-0.036209 0.1529605,-0.060076 0.2440695,-0.071572 0.091105,-0.011498 0.1721382,-0.01037 0.2427458,0.00345 0.071746,0.013218 0.1502163,0.041408 0.2356304,0.084515 l 0.7345249,0.3707145 c 0.0148,0.0592 0.01103,0.109526 -0.01174,0.150909 -0.02392,0.04081 -0.06949,0.07816 -0.13668,0.112076 -0.1309714,0.0661 -0.2978427,0.09515 -0.5005548,0.0871 -0.201575,-0.0086 -0.4076817,-0.06612 -0.6183643,-0.172456 C 7.5936552,10.265818 7.4751019,10.159983 7.4580181,10.059397 7.440937,9.9588128 7.4962694,9.8764043 7.6238197,9.8120287 Z M 9.8772004,8.8039994 c -0.0017,8.604e-4 -0.0032,0.00172 -0.0048,0.00258 -0.0016,8.604e-4 -0.003,0.00172 -0.0045,0.00258 -0.0015,8.604e-4 -0.0029,0.00163 -0.0043,0.00249 -0.0014,8.605e-4 -0.003,0.00176 -0.0043,0.00267 -0.0014,8.604e-4 -0.0027,0.00176 -0.004,0.00267 -0.0013,9.057e-4 -0.0027,0.00176 -0.004,0.00267 -0.0013,9.056e-4 -0.0026,0.00186 -0.0038,0.00276 -0.0012,9.057e-4 -0.0023,0.00181 -0.0035,0.00276 -0.0012,9.516e-4 -0.0025,0.00186 -0.0036,0.00285 -0.0011,9.516e-4 -0.002,0.00181 -0.0031,0.00276 -0.0011,9.516e-4 -0.0021,0.00195 -0.0031,0.0029 -10e-4,9.516e-4 -0.0022,0.00195 -0.0031,0.0029 -9.24e-4,9.516e-4 -0.0019,0.00195 -0.0028,0.00295 -9.24e-4,9.978e-4 -0.0018,0.002 -0.0026,0.00303 -8.6e-4,9.978e-4 -0.0017,0.00195 -0.0025,0.00295 -8.15e-4,9.978e-4 -0.0018,0.00208 -0.0025,0.00308 -7.71e-4,9.978e-4 -0.0015,0.00208 -0.0022,0.00308 -7.25e-4,0.00104 -0.0013,0.00195 -0.002,0.00299 -7.24e-4,0.00109 -0.0014,0.00208 -0.002,0.00317 -5.89e-4,0.00104 -0.0011,0.00208 -0.0017,0.00317 -5.88e-4,0.00109 -0.0011,0.00208 -0.0017,0.00317 -4.98e-4,0.00109 -0.001,0.00217 -0.0015,0.00326 -4.48e-4,0.00109 -9.05e-4,0.00222 -0.0013,0.00335 -3.86e-4,0.00109 -8.16e-4,0.00212 -0.0011,0.00326 -3.52e-4,0.00114 -6.79e-4,0.00222 -10e-4,0.00335 -9.24e-4,0.00335 -0.0016,0.00674 -0.002,0.010189 -1.6e-4,0.00114 -3.83e-4,0.00226 -4.98e-4,0.00345 -1.28e-4,0.00117 -1.28e-4,0.00245 -1.66e-4,0.00358 -6.4e-5,0.00117 0,0.00231 0,0.00348 0,0.00345 2.01e-4,0.00684 6.79e-4,0.010189 1.6e-4,0.00114 1.28e-4,0.00222 3.36e-4,0.00335 2.25e-4,0.00114 4.17e-4,0.00222 6.79e-4,0.00335 2.57e-4,0.00109 6.8e-4,0.00222 0.001,0.00335 2.88e-4,0.00109 6.33e-4,0.00208 10e-4,0.00317 3.84e-4,0.00109 7.24e-4,0.00217 0.0011,0.00326 3.84e-4,0.00109 8.61e-4,0.00212 0.0013,0.00317 4.48e-4,0.00109 8.15e-4,0.00212 0.0013,0.00317 4.98e-4,0.00104 0.0013,0.00204 0.0018,0.00308 5.44e-4,0.00104 0.001,0.00212 0.0017,0.00317 5.89e-4,0.00104 0.0013,0.002 0.002,0.00299 6.79e-4,0.00104 0.0013,0.002 0.002,0.00298 0.0021,0.00303 0.0045,0.006 0.0071,0.00893 9.06e-4,9.978e-4 0.0017,0.002 0.0026,0.00299 9.06e-4,9.516e-4 0.002,0.0019 0.003,0.00285 0.001,9.516e-4 0.0019,0.0019 0.003,0.00285 0.0051,0.00474 0.01081,0.00938 0.01721,0.013866 0.0013,9.057e-4 0.0027,0.00176 0.004,0.00267 0.0013,9.057e-4 0.0026,0.00176 0.004,0.00267 0.0014,9.057e-4 0.0027,0.00172 0.0042,0.00258 0.0057,0.00348 0.01197,0.00689 0.01852,0.010189 0.0016,8.151e-4 0.0033,0.00154 0.005,0.00236 0.0016,7.699e-4 0.0031,0.0015 0.0048,0.00226 0.005,0.00226 0.01007,0.00448 0.01522,0.00651 0.0018,6.792e-4 0.0034,0.0014 0.0052,0.00208 0.0018,6.792e-4 0.0035,0.00117 0.0053,0.00181 0.0018,6.34e-4 0.0035,0.00122 0.0053,0.00181 0.0054,0.00181 0.01096,0.00358 0.01654,0.00518 0.0018,5.434e-4 0.0036,0.00109 0.0055,0.00159 0.0019,4.981e-4 0.0037,0.00104 0.0056,0.0015 0.0019,4.982e-4 0.0039,9.516e-4 0.0058,0.0014 0.0019,4.528e-4 0.0038,8.152e-4 0.0058,0.00127 0.0019,4.343e-4 0.0038,8.604e-4 0.0058,0.00127 0.0059,0.00122 0.01207,0.00236 0.0182,0.00335 0.002,3.197e-4 0.0041,6.34e-4 0.0061,9.057e-4 0.0021,2.97e-4 0.0042,5.887e-4 0.0063,8.604e-4 0.0021,2.739e-4 0.0042,5.886e-4 0.0063,8.603e-4 0.0021,2.514e-4 0.0043,5.435e-4 0.0065,7.699e-4 0.0021,2.26e-4 0.0043,3.885e-4 0.0065,5.887e-4 0.0021,2.101e-4 0.0042,4.116e-4 0.0065,5.887e-4 0.0022,1.779e-4 0.0044,3.428e-4 0.0067,4.981e-4 0.0022,1.454e-4 0.0045,2.971e-4 0.0067,4.112e-4 0.0022,1.132e-4 0.0044,2.513e-4 0.0067,3.428e-4 0.0091,4.116e-4 0.01824,5.887e-4 0.02763,5.887e-4 0.01175,0 0.0231,-2.971e-4 0.03425,-9.057e-4 0.0023,-1.291e-4 0.0045,-2.513e-4 0.0067,-4.112e-4 0.0022,-1.454e-4 0.0044,-3.202e-4 0.0067,-4.981e-4 0.0021,-1.78e-4 0.0043,-3.885e-4 0.0065,-5.887e-4 0.0022,-1.943e-4 0.0043,-3.659e-4 0.0065,-5.887e-4 0.0021,-2.513e-4 0.0043,-4.981e-4 0.0065,-7.698e-4 0.0021,-2.518e-4 0.0042,-5.887e-4 0.0063,-8.604e-4 0.0021,-2.74e-4 0.0042,-5.434e-4 0.0063,-8.604e-4 0.0021,-2.971e-4 0.0041,-5.887e-4 0.0061,-9.057e-4 0.002,-3.201e-4 0.0041,-7.245e-4 0.0061,-0.00109 0.002,-3.655e-4 0.0042,-6.793e-4 0.0061,-0.00109 0.002,-3.885e-4 0.004,-7.698e-4 0.006,-0.00117 0.0019,-4.116e-4 0.0038,-8.151e-4 0.0058,-0.00127 0.0019,-4.342e-4 0.0039,-8.15e-4 0.0058,-0.00127 0.0019,-4.528e-4 0.0039,-9.516e-4 0.0058,-0.0014 0.0019,-4.982e-4 0.0038,-9.978e-4 0.0056,-0.0015 0.0019,-4.981e-4 0.0038,-9.516e-4 0.0056,-0.0015 0.0019,-5.434e-4 0.0038,-0.00109 0.0056,-0.00167 0.0018,-5.887e-4 0.0037,-0.00117 0.0055,-0.00176 0.0018,-5.887e-4 0.0037,-0.00114 0.0055,-0.00176 0.0018,-6.339e-4 0.0033,-0.00127 0.0052,-0.0019 0.0018,-6.34e-4 0.0035,-0.00117 0.0053,-0.00181 0.0018,-6.793e-4 0.0034,-0.0014 0.0051,-0.00208 0.0018,-6.793e-4 0.0034,-0.00136 0.0051,-0.00208 0.0051,-0.00212 0.01,-0.00435 0.0149,-0.00668 0.0017,-8.151e-4 0.0033,-0.0015 0.005,-0.00236 0.0017,-8.604e-4 0.0031,-0.00172 0.0048,-0.00258 0.0048,-0.00249 0.0094,-0.005 0.01373,-0.0076 0.0015,-8.604e-4 0.0028,-0.00172 0.0042,-0.00258 0.0014,-9.057e-4 0.0026,-0.00176 0.004,-0.00267 0.0013,-9.056e-4 0.0027,-0.00176 0.004,-0.00267 0.0013,-9.056e-4 0.0026,-0.00186 0.0038,-0.00276 0.0012,-9.057e-4 0.0024,-0.00176 0.0036,-0.00267 0.0012,-9.057e-4 0.0023,-0.00181 0.0035,-0.00276 0.0011,-9.516e-4 0.0022,-0.0019 0.0033,-0.00285 0.0011,-9.517e-4 0.0019,-0.0019 0.003,-0.00285 10e-4,-9.516e-4 0.002,-0.0019 0.003,-0.00285 10e-4,-9.516e-4 0.002,-0.00186 0.003,-0.00285 9.06e-4,-9.978e-4 0.0018,-0.002 0.0026,-0.00303 0.0026,-0.00295 0.005,-0.00591 0.0071,-0.00893 7.24e-4,-9.978e-4 0.0013,-0.002 0.002,-0.00298 6.79e-4,-0.00104 0.0014,-0.002 0.002,-0.00299 5.89e-4,-0.00104 0.0013,-0.00204 0.0018,-0.00308 5.89e-4,-0.00104 0.0011,-0.00212 0.0017,-0.00317 4.98e-4,-0.00104 8.6e-4,-0.00213 0.0013,-0.00317 4.49e-4,-0.00109 9.07e-4,-0.00208 0.0013,-0.00317 4.16e-4,-0.00109 8.15e-4,-0.00213 0.0011,-0.00326 3.53e-4,-0.00109 6.8e-4,-0.00208 0.001,-0.00317 3.19e-4,-0.00109 7.24e-4,-0.00222 10e-4,-0.00335 2.56e-4,-0.00109 4.48e-4,-0.00222 6.79e-4,-0.00335 1.92e-4,-0.00109 1.92e-4,-0.00222 3.36e-4,-0.00335 4.51e-4,-0.00335 6.79e-4,-0.00674 6.79e-4,-0.010189 0,-0.00117 3.3e-5,-0.00236 0,-0.00348 -3.2e-5,-0.00117 -6.4e-5,-0.00245 -1.66e-4,-0.00358 -1.28e-4,-0.00117 -3.53e-4,-0.00226 -4.99e-4,-0.00345 -4.51e-4,-0.00345 -0.0011,-0.00684 -0.002,-0.010189 -3.21e-4,-0.00114 -6.34e-4,-0.00222 -10e-4,-0.00335 -3.52e-4,-0.00114 -7.69e-4,-0.00217 -0.0011,-0.00326 -4.16e-4,-0.00114 -8.6e-4,-0.00222 -0.0013,-0.00335 -4.98e-4,-0.00109 -10e-4,-0.00217 -0.0015,-0.00326 -4.98e-4,-0.00109 -0.0011,-0.00208 -0.0017,-0.00317 -5.89e-4,-0.00109 -10e-4,-0.00212 -0.0017,-0.00317 -6.34e-4,-0.00109 -0.0013,-0.00212 -0.002,-0.00317 -6.8e-4,-0.00104 -0.0013,-0.00195 -0.002,-0.00298 -7.24e-4,-0.00104 -0.0014,-0.00208 -0.0022,-0.00308 -7.7e-4,-9.978e-4 -0.0017,-0.00208 -0.0025,-0.00308 -8.15e-4,-9.978e-4 -0.0017,-0.00195 -0.0025,-0.00295 -8.61e-4,-9.978e-4 -0.0018,-0.00204 -0.0026,-0.00303 -9.07e-4,-9.516e-4 -0.0018,-0.00195 -0.0028,-0.00295 -9.24e-4,-9.516e-4 -0.0021,-0.00195 -0.0031,-0.0029 -10e-4,-9.516e-4 -0.0019,-0.0019 -0.003,-0.00285 -10e-4,-9.516e-4 -0.0022,-0.0019 -0.0033,-0.00285 -0.0011,-9.516e-4 -0.0024,-0.0019 -0.0036,-0.00285 -0.0012,-9.056e-4 -0.0022,-0.00186 -0.0035,-0.00276 -0.0012,-9.057e-4 -0.0025,-0.00186 -0.0038,-0.00276 -0.0013,-9.056e-4 -0.0026,-0.00176 -0.004,-0.00267 -0.0013,-9.057e-4 -0.0026,-0.00181 -0.004,-0.00267 -0.0014,-9.057e-4 -0.0029,-0.00181 -0.0043,-0.00267 -0.0014,-8.604e-4 -0.0029,-0.00167 -0.0043,-0.00249 -0.0015,-8.604e-4 -0.003,-0.00172 -0.0045,-0.00258 -0.003,-0.00167 -0.0063,-0.00335 -0.0096,-0.00502 -0.0067,-0.0034 -0.01352,-0.00657 -0.02053,-0.00952 -0.0018,-7.246e-4 -0.0035,-0.00145 -0.0053,-0.00217 -0.0018,-7.246e-4 -0.0037,-0.0014 -0.0054,-0.00208 -0.0018,-6.793e-4 -0.0035,-0.00136 -0.0053,-0.002 -0.0018,-6.794e-4 -0.0037,-0.00131 -0.0055,-0.0019 -0.0018,-6.34e-4 -0.0036,-0.00131 -0.0055,-0.0019 -0.0018,-6.339e-4 -0.0036,-0.00117 -0.0054,-0.00176 -0.0018,-5.887e-4 -0.0038,-0.00114 -0.0056,-0.00167 -0.0018,-5.433e-4 -0.0038,-0.00114 -0.0056,-0.00167 -0.0019,-5.435e-4 -0.0039,-0.00109 -0.0058,-0.00159 -0.0019,-4.982e-4 -0.0039,-9.516e-4 -0.0058,-0.0014 -0.0019,-4.981e-4 -0.004,-9.057e-4 -0.006,-0.00131 -0.0019,-4.342e-4 -0.004,-9.056e-4 -0.006,-0.00131 -0.002,-4.112e-4 -0.0038,-8.604e-4 -0.0058,-0.00127 -0.002,-3.886e-4 -0.004,-8.152e-4 -0.006,-0.00117 -0.002,-3.655e-4 -0.0042,-7.699e-4 -0.0061,-0.00109 -0.002,-3.428e-4 -0.0041,-5.886e-4 -0.0061,-9.056e-4 -0.002,-2.971e-4 -0.0041,-6.34e-4 -0.0061,-9.057e-4 -0.002,-2.971e-4 -0.0043,-5.887e-4 -0.0063,-8.604e-4 -0.0021,-2.513e-4 -0.0043,-4.982e-4 -0.0065,-7.699e-4 -0.0021,-2.259e-4 -0.0042,-4.528e-4 -0.0063,-6.792e-4 -0.0021,-2.101e-4 -0.0042,-4.116e-4 -0.0065,-5.887e-4 -0.0021,-1.78e-4 -0.0042,-3.428e-4 -0.0063,-4.981e-4 -0.0022,-1.617e-4 -0.0044,-3.66e-4 -0.0067,-4.982e-4 -0.0022,-1.29e-4 -0.0044,-2.26e-4 -0.0067,-3.427e-4 -0.0021,-1.133e-4 -0.0043,-1.617e-4 -0.0065,-2.514e-4 -0.0022,-8.06e-5 -0.0045,-1.938e-4 -0.0067,-2.513e-4 -0.0022,-6.48e-5 -0.0045,-4.84e-5 -0.0067,-8.24e-5 -0.0023,-3.26e-5 -0.0045,-8.11e-5 -0.0067,-8.43e-5 -0.0023,0 -0.0045,4.85e-5 -0.0067,8.24e-5 -0.0022,3.26e-5 -0.0045,3.26e-5 -0.0067,8.43e-5 -0.0023,6.47e-5 -0.0045,1.775e-4 -0.0067,2.513e-4 -0.0022,8.11e-5 -0.0043,1.454e-4 -0.0065,2.514e-4 -0.0022,1.131e-4 -0.0044,2.101e-4 -0.0067,3.427e-4 -0.0022,1.296e-4 -0.0044,3.429e-4 -0.0067,4.982e-4 -0.0021,1.612e-4 -0.0042,3.197e-4 -0.0063,4.981e-4 -0.0021,1.78e-4 -0.0043,3.654e-4 -0.0065,5.887e-4 -0.0021,2.097e-4 -0.0043,4.343e-4 -0.0063,6.792e-4 -0.0021,2.264e-4 -0.0043,4.982e-4 -0.0065,7.699e-4 -0.0021,2.513e-4 -0.0043,5.434e-4 -0.0063,8.604e-4 -0.002,2.97e-4 -0.0041,5.887e-4 -0.0061,9.057e-4 -0.002,2.97e-4 -0.0042,5.886e-4 -0.0061,9.056e-4 -9.07e-4,1.562e-4 -0.0018,3.428e-4 -0.0027,4.981e-4 -0.0072,0.00127 -0.01421,0.00276 -0.02117,0.00435 -0.0019,4.344e-4 -0.004,8.605e-4 -0.006,0.00131 -0.0019,4.981e-4 -0.0039,9.056e-4 -0.0058,0.0014 -0.0019,4.98e-4 -0.0039,0.00109 -0.0058,0.00159 -0.0019,5.434e-4 -0.0038,0.00114 -0.0056,0.00167 -0.0019,5.887e-4 -0.0038,0.00109 -0.0056,0.00167 -0.0018,5.887e-4 -0.0037,0.00117 -0.0055,0.00176 -0.0018,6.34e-4 -0.0037,0.00131 -0.0055,0.0019 -0.0073,0.00253 -0.01452,0.00523 -0.02152,0.00818 -0.007,0.00295 -0.01383,0.00614 -0.02052,0.00952 -0.0017,8.151e-4 -0.0032,0.00159 -0.0048,0.0024 z m -0.08753,2.3374686 c 0.5580276,0.04024 1.1007846,-0.07269 1.6280676,-0.338816 0.528418,-0.266694 0.752689,-0.540888 0.67297,-0.8225272 l -0.07165,0.036159 c -0.0148,0.09254 -0.112286,0.209009 -0.292223,0.349255 -0.151464,0.117828 -0.326738,0.22704 -0.526031,0.327624 -0.197021,0.09944 -0.412889,0.187637 -0.647488,0.264656 -0.279015,0.09139 -0.509619,0.140505 -0.6918336,0.147402 z" />
  </g>
</svg>
