<?xml version="1.0" encoding="UTF-8" standalone="no"?>
<!-- Created with Inkscape (http://www.inkscape.org/) -->

<svg
   width="20mm"
   height="20mm"
   viewBox="0 0 20 20"
   version="1.1"
   id="svg15238"
   inkscape:version="1.2.1 (9c6d41e, 2022-07-14)"
   sodipodi:docname="padlock.svg"
   xmlns:inkscape="http://www.inkscape.org/namespaces/inkscape"
   xmlns:sodipodi="http://sodipodi.sourceforge.net/DTD/sodipodi-0.dtd"
   xmlns:xlink="http://www.w3.org/1999/xlink"
   xmlns="http://www.w3.org/2000/svg"
   xmlns:svg="http://www.w3.org/2000/svg">
  <sodipodi:namedview
     id="namedview15240"
     pagecolor="#ffffff"
     bordercolor="#000000"
     borderopacity="0.25"
     inkscape:showpageshadow="2"
     inkscape:pageopacity="0.0"
     inkscape:pagecheckerboard="0"
     inkscape:deskcolor="#d1d1d1"
     inkscape:document-units="mm"
     showgrid="false"
     inkscape:zoom="6.2187126"
     inkscape:cx="40.040442"
     inkscape:cy="46.955056"
     inkscape:window-width="1440"
     inkscape:window-height="847"
     inkscape:window-x="0"
     inkscape:window-y="25"
     inkscape:window-maximized="0"
     inkscape:current-layer="XMLID_504_" />
  <defs
     id="defs15235">
    <linearGradient
       inkscape:collect="always"
       id="linearGradient7035">
      <stop
         style="stop-color:#f5a778;stop-opacity:1;"
         offset="0"
         id="stop7031" />
      <stop
         style="stop-color:#f5cd78;stop-opacity:1;"
         offset="1"
         id="stop7033" />
    </linearGradient>
    <linearGradient
       inkscape:collect="always"
       xlink:href="#linearGradient7035"
       id="linearGradient7037"
       x1="48.265778"
       y1="317.63486"
       x2="254.85466"
       y2="67.874115"
       gradientUnits="userSpaceOnUse" />
  </defs>
  <g
     inkscape:label="Layer 1"
     inkscape:groupmode="layer"
     id="layer1">
    <g
       id="XMLID_504_"
       transform="matrix(0.04906031,0,0,0.04906031,2.0025152,2.1386297)">
      <path
         id="path6630"
         style="fill:url(#linearGradient7037);fill-opacity:1"
         d="M 165.00221 0.0052554204 C 118.13336 0.0052554204 79.998915 38.12916 79.998915 84.998019 L 79.998915 129.99605 L 64.999573 129.99605 C 56.715597 129.99605 50.00023 136.71142 50.00023 144.99539 L 50.00023 315.00198 C 50.00023 323.28595 56.715597 330.00133 64.999573 330.00133 L 265.00485 330.00133 C 273.28882 330.00133 280.00419 323.28595 280.00419 315.00198 L 280.00419 144.99539 C 280.00419 136.71142 273.28882 129.99605 265.00485 129.99605 L 249.99498 129.99605 L 249.99498 84.998019 C 249.99498 38.12916 211.87109 0.0052554204 165.00221 0.0052554204 z M 165.00221 30.003941 C 195.32912 30.003941 219.99629 54.671109 219.99629 84.998019 L 219.99629 129.99605 L 109.9976 129.99605 L 109.9976 84.998019 C 109.9976 54.671109 134.6753 30.003941 165.00221 30.003941 z " />
      <path
         id="XMLID_505_"
         d="m 154.21617,-10.780788 c -46.8689,0 -85.003299,38.123857 -85.003299,84.992763 V 119.21001 H 54.213529 c -8.283984,0 -14.999343,6.71536 -14.999343,14.99934 v 170.00659 c 0,8.28398 6.715359,14.99935 14.999343,14.99935 H 254.21881 c 8.28398,0 14.99934,-6.71537 14.99934,-14.99935 V 134.20935 c 0,-8.28398 -6.71536,-14.99934 -14.99934,-14.99934 H 239.20894 V 74.211975 c 0,-46.868906 -38.12385,-84.992763 -84.99277,-84.992763 z m 0,29.998685 c 30.32694,0 54.99408,24.667138 54.99408,54.994078 V 119.21001 H 99.211556 V 74.211975 c 0,-30.32694 24.677674,-54.994078 55.004614,-54.994078 z m 23.05728,144.674143 c 1.26311,0 2.50776,0.0604 3.71823,0.17906 8.47337,0.83087 15.65653,4.56038 21.55103,11.20738 2.43215,2.72778 4.41011,5.67031 5.93021,8.81632 0.50652,1.04838 0.95355,2.11781 1.35879,3.21264 0.40536,1.09514 0.75984,2.2185 1.06386,3.36011 0.30402,1.14161 0.56625,2.29843 0.76893,3.4865 v 0.0105 c 0.20259,1.18775 0.35162,2.38924 0.45293,3.62343 0.1013,1.23455 0.14746,2.50041 0.14746,3.78144 0,1.32581 -0.0444,2.62187 -0.14746,3.8973 -0.10302,1.27543 -0.25743,2.5248 -0.46347,3.74984 -0.61812,3.6751 -1.69895,7.12204 -3.24424,10.34364 -1.0302,2.14775 -2.27595,4.19472 -3.71823,6.14089 -0.72099,0.97284 -1.49335,1.92148 -2.31732,2.84397 -0.85535,0.96277 -1.73197,1.86459 -2.64384,2.70705 -6.38439,5.89836 -14.15477,8.85846 -23.31008,8.85846 -7.95489,0 -14.81354,-2.13027 -20.57142,-6.38315 -0.95965,-0.70882 -1.8927,-1.47982 -2.79132,-2.30678 -0.89861,-0.82695 -1.76412,-1.70929 -2.60171,-2.65438 -1.59436,-1.81827 -2.98587,-3.74729 -4.1817,-5.78275 -1.7937,-3.05333 -3.14782,-6.34869 -4.04476,-9.89072 -0.29889,-1.18047 -0.53803,-2.3887 -0.73733,-3.62344 -0.19926,-1.23477 -0.35323,-2.50292 -0.45293,-3.79197 -0.0996,-1.28941 -0.14746,-2.60622 -0.14746,-3.94996 0,-1.44676 0.0559,-2.85424 0.17906,-4.23437 0.1232,-1.38049 0.31182,-2.73094 0.55826,-4.04476 0.739,-3.94017 2.02886,-7.58237 3.87624,-10.92298 0.61573,-1.11335 1.29407,-2.19749 2.03291,-3.24424 0.73889,-1.04676 1.53957,-2.05342 2.40158,-3.03358 0.86223,-0.98035 1.78485,-1.93023 2.77025,-2.84397 0.85551,-0.7928 1.73581,-1.53934 2.63331,-2.23305 2.07152,-1.60114 4.26698,-2.89783 6.56221,-3.97103 4.66593,-2.18182 9.77759,-3.30744 15.36801,-3.30744 z m -1.02173,3.91836 c -6.52158,0 -11.75293,2.41996 -15.69453,7.25741 -1.22727,1.50497 -2.30272,3.18054 -3.22318,5.03489 -0.92045,1.85434 -1.68262,3.88451 -2.29624,6.08822 -1.22728,4.40744 -1.84332,9.52094 -1.84332,15.32587 4e-5,2.98265 0.16655,5.79098 0.48453,8.4266 0.15901,1.31799 0.35135,2.59237 0.58986,3.82357 0.47702,2.46239 1.11148,4.75241 1.90652,6.86767 1.19255,3.17289 2.74759,5.95052 4.65569,8.34233 3.86995,4.87321 9.02343,7.31008 15.47334,7.31008 8.52822,0 14.7991,-3.62153 18.81238,-10.85978 1.61248,-2.84868 2.82773,-6.13408 3.63397,-9.86965 0.80624,-3.73557 1.21132,-7.91215 1.21132,-12.53456 0,-2.44601 -0.094,-4.77949 -0.2844,-6.98355 -0.38072,-4.40743 -1.14353,-8.32567 -2.28571,-11.76563 -0.57108,-1.71998 -1.23987,-3.31452 -2.00132,-4.79263 -0.99436,-1.94392 -2.13937,-3.65067 -3.43384,-5.10862 -0.64723,-0.72898 -1.33172,-1.39384 -2.05398,-2.00132 -2.16651,-1.82221 -4.66864,-3.10508 -7.5102,-3.8341 -1.89467,-0.48599 -3.94613,-0.7268 -6.14089,-0.7268 z m -65.29559,19.93944 c 2.04248,0 3.91533,0.29044 5.63529,0.86373 1.71998,0.57329 3.26243,1.43395 4.62409,2.58064 2.0783,-1.00329 4.07322,-2.1544 5.97235,-3.44437 h 1.82225 v 63.32588 c 0,3.15333 0.21254,5.17132 0.64253,6.06715 0.43,0.89582 1.09496,1.59452 1.99079,2.09611 0.93164,0.50169 2.72033,0.75839 5.37195,0.75839 v 1.98026 h -24.82686 v -1.98026 h 1.02172 c 2.00665,0 3.53227,-0.29044 4.57143,-0.86372 0.71665,-0.39415 1.28693,-1.10955 1.71692,-2.14878 0.42998,-1.00328 0.64253,-2.97081 0.64253,-5.90915 v -21.18236 c -3.26077,3.87003 -6.10582,6.51932 -8.54246,7.9526 -2.43664,1.39752 -4.96815,2.09611 -7.58394,2.09611 -4.765784,0 -9.024914,-2.16313 -12.787364,-6.49901 -3.726617,-4.33565 -5.593154,-10.13733 -5.593154,-17.41145 0,-8.3491 2.470469,-15.1397 7.415404,-20.3713 4.94494,-5.26735 10.919134,-7.91047 17.906524,-7.91047 z m -1.67479,3.7709 c -4.01329,0 -7.44543,1.69402 -10.312044,5.09809 -2.86664,3.40419 -4.3081,8.56816 -4.3081,15.48387 0,6.62903 1.45829,11.66464 4.36076,15.10468 2.938304,3.43993 6.465154,5.16129 10.585914,5.16129 2.11415,0 3.99751,-0.45243 5.64582,-1.34826 1.64831,-0.93167 3.27496,-2.42997 4.88743,-4.50822 v -23.12048 c 0,-2.68751 -0.35774,-4.8002 -1.07439,-6.34101 -0.68082,-1.54082 -1.91605,-2.84339 -3.7077,-3.91837 -1.79165,-1.07498 -3.82022,-1.61159 -6.07769,-1.61159 z m 67.02305,4.0237 h 0.0105 c 0.83657,8.7e-4 1.6135,0.14778 2.31732,0.43186 h 0.0105 c 0.70374,0.28594 1.33579,0.71538 1.90652,1.28506 l 0.0105,0.0105 c 0.57236,0.57232 0.99839,1.21081 1.28506,1.91705 0.28654,0.70736 0.43173,1.48622 0.43186,2.32785 0,1.64838 -0.58711,3.06247 -1.76959,4.2449 -1.14665,1.14668 -2.55444,1.71692 -4.20276,1.71692 -1.61248,0 -3.00974,-0.58716 -4.19223,-1.76959 -1.18248,-1.18252 -1.76959,-2.5797 -1.76959,-4.19223 1.3e-4,-0.82371 0.14533,-1.58729 0.43186,-2.28571 0.28666,-0.69733 0.71271,-1.33416 1.28506,-1.90652 1.18063,-1.18059 2.59989,-1.77812 4.2449,-1.78012 z m -74.38579,71.48914 h 2.26465 c 3.08163,2.65165 8.23511,4.74753 15.47334,6.28835 6.0916,1.28998 12.2341,1.93812 18.43318,1.93812 6.27075,0 12.44062,-0.64814 18.49638,-1.93812 7.2024,-1.54082 12.35587,-3.6367 15.47334,-6.28835 h 2.26465 c -7.52491,10.03321 -19.60794,15.05201 -36.23437,15.05201 -16.5906,0 -28.64626,-5.0188 -36.17117,-15.05201 z"
         style="fill:#78cbf5;fill-opacity:1" />
    </g>
  </g>
</svg>
