<?xml version="1.0" encoding="UTF-8" standalone="no"?>
<!-- Created with Inkscape (http://www.inkscape.org/) -->

<svg
   width="512"
   height="512"
   viewBox="0 0 512 512"
   version="1.1"
   id="svg16224"
   inkscape:version="1.2.1 (9c6d41e, 2022-07-14)"
   sodipodi:docname="drawing-2024-06-03 monochrome circle mask.svg"
   xmlns:inkscape="http://www.inkscape.org/namespaces/inkscape"
   xmlns:sodipodi="http://sodipodi.sourceforge.net/DTD/sodipodi-0.dtd"
   xmlns="http://www.w3.org/2000/svg"
   xmlns:svg="http://www.w3.org/2000/svg">
  <sodipodi:namedview
     id="namedview16226"
     pagecolor="#ffffff"
     bordercolor="#000000"
     borderopacity="0.25"
     inkscape:showpageshadow="2"
     inkscape:pageopacity="0.0"
     inkscape:pagecheckerboard="0"
     inkscape:deskcolor="#d1d1d1"
     inkscape:document-units="px"
     showgrid="false"
     inkscape:zoom="0.60411435"
     inkscape:cx="239.19313"
     inkscape:cy="238.36547"
     inkscape:window-width="1440"
     inkscape:window-height="847"
     inkscape:window-x="1920"
     inkscape:window-y="205"
     inkscape:window-maximized="0"
     inkscape:current-layer="layer1" />
  <defs
     id="defs16221" />
  <g
     inkscape:label="Layer 1"
     inkscape:groupmode="layer"
     id="layer1">
    <path
       id="path21578"
       style="fill:#000000;stroke:none;stroke-width:1.33333"
       d="M 256.66602 0.66601562 A 256 256 0 0 0 0.66601562 256.66602 A 256 256 0 0 0 256.66602 512.66602 A 256 256 0 0 0 512.66602 256.66602 A 256 256 0 0 0 256.66602 0.66601562 z M 319.20898 116.51758 C 344.7386 116.51758 366.01349 126.11422 383.0332 145.30664 C 384.05732 146.45526 385.04965 147.61892 386.00977 148.79688 L 386.00977 148.79883 C 387.92968 151.15443 389.72276 153.56609 391.38672 156.03906 L 391.38672 156.04102 C 392.21853 157.27729 393.01927 158.52931 393.78711 159.79492 L 393.78711 159.79688 C 394.55493 161.06247 395.29224 162.34178 395.99609 163.63672 L 395.99609 163.63867 C 396.69992 164.9336 397.37186 166.24215 398.01172 167.56641 L 398.01172 167.56836 C 398.65156 168.89262 399.26007 170.23235 399.83594 171.58594 L 399.83594 171.58789 C 400.41178 172.94149 400.95688 174.3085 401.46875 175.69141 L 401.46875 175.69336 C 401.98061 177.07628 402.46031 178.47447 402.9082 179.88672 L 402.9082 179.88867 C 403.35607 181.30093 403.77234 182.72833 404.15625 184.16992 L 404.15625 184.17188 C 404.54014 185.61347 404.89296 187.0701 405.21289 188.54102 L 405.21289 188.54297 C 405.8528 191.48538 406.36408 194.48515 406.74805 197.54492 L 406.74805 197.54688 C 406.93998 199.07649 407.10054 200.62075 407.22852 202.17969 L 407.22852 202.18164 C 407.35646 203.74061 407.45358 205.31405 407.51758 206.90234 C 407.58158 208.49122 407.61328 210.09661 407.61328 211.71484 C 407.61328 213.38966 407.58072 215.04842 407.51562 216.69141 L 407.51562 216.69336 C 407.45055 218.33576 407.35275 219.96166 407.22266 221.57227 L 407.22266 221.57422 C 406.9624 224.79597 406.57124 227.95435 406.05078 231.04883 L 406.05078 231.05078 C 405.79058 232.59772 405.49905 234.12938 405.17383 235.64453 C 404.84849 237.1602 404.49002 238.66068 404.09961 240.14453 C 403.7092 241.62839 403.2875 243.09485 402.83203 244.54688 L 402.83203 244.54883 C 402.37668 246.00033 401.88757 247.43578 401.36719 248.85547 L 401.36719 248.85742 C 400.84681 250.27711 400.29244 251.68047 399.70703 253.06836 L 399.70703 253.07031 C 397.95031 257.23492 395.9008 261.25654 393.55859 265.13477 L 393.55859 265.13672 C 392.77799 266.4292 391.96477 267.70419 391.11914 268.96484 C 390.87019 269.33598 390.59639 269.69804 390.3418 270.06641 C 389.73172 270.94915 389.12487 271.83426 388.48242 272.70117 C 387.57146 273.93042 386.62837 275.14437 385.65234 276.3418 C 384.67631 277.5392 383.6661 278.72114 382.625 279.88672 L 382.625 279.88867 C 381.54456 281.10482 380.44816 282.28172 379.33203 283.42188 C 362.5857 300.52879 341.8198 309.08203 317.03711 309.08203 C 291.9149 309.08203 271.12898 300.6891 254.67969 283.90039 C 253.58336 282.78144 252.50507 281.62518 251.44727 280.43164 L 251.44727 280.42969 C 250.44041 279.28141 249.46348 278.11613 248.51953 276.93359 L 248.51953 276.93164 C 247.57561 275.74909 246.66421 274.54885 245.7832 273.33203 L 245.7832 273.33008 C 244.90222 272.11326 244.05244 270.88 243.23438 269.62891 L 243.23438 269.62695 C 240.77945 265.87244 238.60521 261.96364 236.7168 257.90039 C 236.08711 256.54549 235.49053 255.17437 234.92383 253.78516 C 233.22426 249.61899 231.80687 245.29911 230.67383 240.82422 C 230.29601 239.33206 229.95154 237.82531 229.63672 236.29883 C 229.32209 234.77344 229.03884 233.22959 228.78711 231.66992 L 228.78711 231.66797 C 228.53541 230.10829 228.3138 228.53147 228.125 226.9375 L 228.125 226.93555 C 227.93616 225.34101 227.77824 223.7304 227.65234 222.10156 C 227.52641 220.47216 227.43204 218.82582 227.36914 217.16211 C 227.30624 215.49896 227.27539 213.81854 227.27539 212.12109 C 227.27539 210.29351 227.31478 208.48863 227.39258 206.70312 C 227.54817 203.13212 227.85937 199.64486 228.32617 196.24219 C 228.5595 194.5414 228.83152 192.86185 229.14258 191.20312 L 229.14258 191.20117 C 229.45368 189.54246 229.80452 187.90376 230.19336 186.28711 L 230.19336 186.28516 C 230.58224 184.66852 231.00995 183.07458 231.47656 181.5 L 231.47656 181.49805 C 231.94321 179.92348 232.44975 178.36845 232.99414 176.83594 L 232.99414 176.83398 C 233.53874 175.30098 234.12174 173.78975 234.74414 172.29883 C 235.36654 170.80791 236.02832 169.33946 236.72852 167.89062 C 237.42848 166.44224 238.16758 165.01375 238.94531 163.60742 L 238.94531 163.60547 C 239.72306 162.19915 240.54098 160.81348 241.39648 159.44922 L 241.39648 159.44727 C 242.25203 158.083 243.14678 156.74018 244.08008 155.41797 L 244.08008 155.41602 C 245.01368 154.09343 245.98665 152.79417 246.99805 151.51367 C 248.0097 150.23284 249.05894 148.97115 250.14844 147.73242 C 252.32683 145.25558 254.66277 142.8632 257.15234 140.55469 C 274.44366 124.53076 295.12795 116.51953 319.20898 116.51953 L 319.20898 116.51758 z M 316.62891 126.43164 C 302.21192 126.43164 290.29169 131.10959 280.86523 140.4668 C 280.19223 141.13491 279.53039 141.82717 278.88281 142.54297 L 278.88281 142.54492 C 278.23525 143.26074 277.60064 144.00016 276.97852 144.76367 L 276.97852 144.76562 C 276.20366 145.71586 275.45106 146.6919 274.72461 147.69727 L 274.72461 147.69922 C 273.99818 148.7046 273.2952 149.73834 272.61719 150.79883 L 272.61719 150.80078 C 271.9392 151.8613 271.28389 152.94881 270.6543 154.06445 L 270.6543 154.06641 C 270.02475 155.18207 269.41903 156.32531 268.83789 157.49609 L 268.83789 157.49805 C 268.25675 158.66885 267.69875 159.86587 267.16602 161.0918 L 267.16602 161.09375 C 266.10042 163.54612 265.13165 166.10829 264.25977 168.78125 L 264.25977 168.7832 C 263.82392 170.11944 263.41088 171.48363 263.02344 172.875 L 263.02344 172.87695 C 262.63603 174.26835 262.27456 175.68628 261.93555 177.13281 L 261.93555 177.13477 C 261.59656 178.58132 261.27886 180.05691 260.98828 181.55859 L 260.98828 181.56055 C 260.69771 183.06228 260.4316 184.58965 260.18945 186.14648 C 259.9472 187.70388 259.7309 189.28978 259.53711 190.90234 C 259.34332 192.51492 259.17268 194.15452 259.02734 195.82227 L 259.02734 195.82422 C 258.59141 200.82694 258.37305 206.07899 258.37305 211.57812 L 258.37305 211.58008 C 258.37305 213.46364 258.39902 215.31965 258.44922 217.14844 C 258.49943 218.97781 258.5734 220.78014 258.67383 222.55469 C 258.77426 224.32922 258.90013 226.0752 259.05078 227.79492 L 259.05078 227.79688 C 259.20139 229.51601 259.37733 231.2087 259.57812 232.87305 L 259.57812 232.875 C 259.77893 234.53932 260.00487 236.17756 260.25586 237.78711 L 260.25586 237.78906 C 260.50688 239.39858 260.78279 240.97846 261.08398 242.5332 L 261.08398 242.53516 C 261.38519 244.08987 261.71307 245.61725 262.06445 247.11719 L 262.06445 247.11914 C 262.41586 248.61905 262.79373 250.09197 263.19531 251.53711 C 263.99876 254.42843 264.90193 257.21076 265.90625 259.88281 C 266.40841 261.21885 266.9359 262.52738 267.48828 263.80859 L 267.48828 263.81055 C 268.59286 266.37247 269.79813 268.82522 271.10352 271.16797 L 271.10352 271.16992 C 272.40891 273.51264 273.81607 275.74559 275.32227 277.86914 L 275.32227 277.87109 C 276.07526 278.93267 276.85308 279.96586 277.65625 280.97266 L 277.65625 280.97461 C 278.26706 281.74375 278.89108 282.48792 279.52734 283.20898 L 279.52734 283.21094 C 280.16362 283.932 280.81485 284.62972 281.47656 285.30273 C 282.13856 285.97605 282.81253 286.62477 283.5 287.25 C 292.43704 295.37783 303.52556 299.44141 316.76562 299.44141 C 334.27146 299.44141 348.01233 293.40573 357.98828 281.33398 L 357.98828 281.33203 C 358.75538 280.40372 359.50203 279.44109 360.22461 278.44141 L 360.22461 278.43945 C 361.66999 276.43968 363.02575 274.29713 364.29297 272.01172 L 364.29297 272.00977 C 364.80196 271.11057 365.29625 270.19394 365.77344 269.25977 L 365.77344 269.25781 C 366.25062 268.32362 366.71282 267.37346 367.1582 266.4043 L 367.1582 266.40234 C 368.94031 262.52419 370.4692 258.36399 371.74219 253.92578 L 371.74219 253.92383 C 372.37859 251.70495 372.95179 249.41745 373.46094 247.05859 L 373.46094 247.05664 C 374.4793 242.33827 375.24273 237.33897 375.75195 232.06055 L 375.75195 232.05859 C 376.00652 229.41962 376.19691 226.71062 376.32422 223.93164 L 376.32422 223.92969 C 376.45151 221.15067 376.5156 218.30182 376.51562 215.38281 L 376.51562 215.38086 C 376.51562 209.20278 376.27577 203.3308 375.79492 197.76367 L 375.79492 197.76172 C 375.5545 194.97848 375.25319 192.27115 374.89258 189.64062 L 374.89258 189.63867 C 374.53188 187.00763 374.10985 184.45288 373.62891 181.97461 C 372.6669 177.01747 371.4665 172.36739 370.02344 168.02148 C 369.30219 165.84927 368.51915 163.75389 367.67773 161.73438 L 367.67773 161.73242 C 366.83629 159.71294 365.93429 157.76913 364.97266 155.90234 L 364.97266 155.90039 C 364.34484 154.67302 363.69276 153.48466 363.01758 152.33398 L 363.01758 152.33203 C 362.34214 151.18095 361.64275 150.06848 360.91992 148.99414 C 360.19684 147.91942 359.4502 146.88464 358.67969 145.88672 C 357.90974 144.88947 357.11613 143.93033 356.29883 143.00977 L 356.29883 143.00781 C 355.4815 142.08725 354.64008 141.20519 353.77539 140.36133 C 344.26052 131.07598 331.87759 126.43359 316.62891 126.43359 L 316.62891 126.43164 z M 151.63867 176.81445 C 156.79892 176.81445 161.55105 177.53794 165.89648 178.98633 C 170.24195 180.43473 174.13601 182.60686 177.57617 185.50391 C 182.82694 182.96917 187.8484 180.07353 192.64648 176.81445 L 197.26562 176.81445 L 197.26562 336.78125 C 197.26562 344.74806 197.80819 349.86367 198.89453 352.12695 C 199.98092 354.39024 201.65663 356.15462 203.91992 357.42188 C 206.27371 358.68937 210.80081 359.32422 217.5 359.32422 L 217.5 364.34766 L 154.75977 364.34766 L 154.75977 359.32422 L 157.3418 359.32422 C 162.41152 359.32422 166.25744 358.59878 168.88281 357.15039 C 170.69341 356.1546 172.14216 354.34433 173.22852 351.71875 C 174.31485 349.18399 174.85938 344.20487 174.85938 336.78125 L 174.85938 283.27734 C 166.62116 293.05484 159.42172 299.7539 153.26562 303.375 C 147.10956 306.9058 140.72784 308.67188 134.11914 308.67188 C 122.07857 308.67188 111.30645 303.19465 101.80078 292.24023 C 92.385611 281.28634 87.677734 266.62193 87.677734 248.24414 C 87.677734 227.15046 93.924764 209.99285 106.41797 196.77539 C 118.91118 183.46761 133.98525 176.81445 151.63867 176.81445 z M 147.42773 186.32031 C 137.28828 186.32031 128.59787 190.62041 121.35547 199.2207 C 114.11302 207.82126 110.49219 220.85777 110.49219 238.33008 C 110.49219 255.07808 114.15726 267.79715 121.49023 276.48828 C 128.91374 285.17913 137.83121 289.52344 148.24219 289.52344 C 153.58348 289.52344 158.33753 288.39414 162.50195 286.13086 C 166.66632 283.777 170.78553 279.97524 174.85938 274.72461 L 174.85938 216.33008 C 174.85938 209.54019 173.95317 204.19948 172.14258 200.30664 C 170.42252 196.41381 167.29996 193.10848 162.77344 190.39258 C 158.2469 187.67668 153.13111 186.32031 147.42773 186.32031 z M 316.76562 196.50391 C 316.79172 196.50391 316.8157 196.50575 316.8418 196.50586 C 317.32106 196.50786 317.79195 196.52946 318.25391 196.56836 C 318.30171 196.57236 318.34878 196.57608 318.39648 196.58008 C 318.86041 196.62313 319.31731 196.68503 319.76367 196.76562 C 319.80863 196.77372 319.85364 196.78302 319.89844 196.79102 C 320.34113 196.87499 320.77396 196.97845 321.19922 197.09961 C 321.24084 197.11151 321.28282 197.12257 321.32422 197.13477 C 321.77194 197.26668 322.21042 197.41638 322.63867 197.58984 C 323.08566 197.77091 323.52344 197.97484 323.94922 198.20117 C 324.35908 198.41904 324.75628 198.66011 325.14648 198.91992 C 325.17618 198.93972 325.20673 198.96047 325.23633 198.98047 C 325.61109 199.23405 325.9775 199.50627 326.33398 199.79883 C 326.36108 199.82113 326.38892 199.84469 326.41602 199.86719 C 326.77233 200.16375 327.11911 200.48059 327.45703 200.81641 C 327.46923 200.82851 327.48204 200.83741 327.49414 200.84961 L 327.49414 200.85156 C 327.84548 201.20286 328.1737 201.56427 328.48242 201.93555 C 328.49152 201.94655 328.50272 201.95775 328.51172 201.96875 L 328.51172 201.9707 C 328.82039 202.34413 329.10537 202.72753 329.37109 203.12109 C 329.37789 203.13109 329.38753 203.14039 329.39453 203.15039 L 329.39453 203.15234 C 329.66612 203.55687 329.91625 203.97071 330.14258 204.39648 C 330.36891 204.82223 330.57285 205.2581 330.75391 205.70508 C 330.93498 206.15206 331.09273 206.60993 331.22852 207.07812 C 331.36288 207.54135 331.47435 208.01599 331.56445 208.5 C 331.56445 208.5047 331.56555 208.50867 331.56641 208.51367 L 331.56641 208.51562 C 331.65643 209.00226 331.72228 209.50019 331.76758 210.00781 C 331.76758 210.01081 331.76932 210.01363 331.76953 210.01562 L 331.76953 210.01758 C 331.81473 210.52712 331.83779 211.04551 331.83789 211.57617 L 331.83789 211.58008 C 331.83789 212.10064 331.81623 212.61111 331.76953 213.11328 C 331.7229 213.61489 331.65179 214.10854 331.55859 214.5918 L 331.55859 214.59375 C 331.46534 215.07699 331.34881 215.55075 331.20898 216.01562 L 331.20898 216.01758 C 331.06894 216.48296 330.90547 216.93778 330.71875 217.38477 C 330.53223 217.8313 330.321 218.2691 330.08789 218.69727 L 330.08789 218.69922 C 329.85473 219.12741 329.59813 219.54525 329.31836 219.95508 L 329.31836 219.95703 C 329.03853 220.36688 328.73463 220.76867 328.4082 221.16016 L 328.4082 221.16211 C 328.0817 221.55362 327.73052 221.9335 327.35742 222.30664 L 327.35742 222.30859 C 326.9953 222.67072 326.62216 223.01127 326.24023 223.32812 C 325.85831 223.64498 325.46814 223.93935 325.06641 224.21094 C 324.66468 224.48255 324.25161 224.7307 323.83008 224.95703 C 323.40854 225.18336 322.97844 225.3873 322.53711 225.56836 C 322.09577 225.74943 321.64472 225.90912 321.18359 226.04492 C 320.72245 226.18072 320.25048 226.29231 319.76953 226.38281 C 319.28859 226.47334 318.79958 226.54259 318.29883 226.58789 C 317.79808 226.63319 317.28617 226.65625 316.76562 226.65625 C 316.2564 226.65625 315.75593 226.63264 315.26367 226.58594 C 314.77141 226.53926 314.28778 226.46645 313.8125 226.37305 C 313.33721 226.27969 312.87042 226.16348 312.41211 226.02344 C 311.9538 225.88342 311.50384 225.71992 311.0625 225.5332 C 310.62117 225.34649 310.18802 225.1377 309.76367 224.9043 C 309.3393 224.67092 308.92301 224.41484 308.51562 224.13477 C 308.10824 223.85471 307.71073 223.55135 307.32031 223.22461 C 306.9299 222.89786 306.54727 222.54725 306.17383 222.17383 L 306.17383 222.17188 C 305.80072 221.79871 305.44954 221.41745 305.12305 221.02734 C 304.79629 220.63691 304.49298 220.23747 304.21289 219.83008 C 303.93282 219.42268 303.67676 219.00641 303.44336 218.58203 C 303.20996 218.15765 302.99922 217.72651 302.8125 217.28516 L 302.8125 217.2832 C 302.62605 216.84233 302.46216 216.39142 302.32227 215.93359 C 302.18224 215.47527 302.06606 215.01046 301.97266 214.53516 L 301.97266 214.5332 C 301.87946 214.05842 301.81027 213.57568 301.76367 213.08398 L 301.76367 213.08203 C 301.71707 212.5903 301.69336 212.08875 301.69336 211.58008 L 301.69336 211.57812 L 301.69336 211.57617 C 301.69346 211.05682 301.71457 210.5465 301.75977 210.04688 C 301.80503 209.54614 301.87434 209.05711 301.96484 208.57617 L 301.96484 208.57422 C 301.96484 208.56952 301.96592 208.56555 301.9668 208.56055 C 302.05683 208.085 302.17036 207.61828 302.30469 207.16211 L 302.30469 207.16016 C 302.30669 207.15376 302.30855 207.14662 302.31055 207.14062 C 302.44497 206.68671 302.60096 206.24329 302.7793 205.80859 L 302.7793 205.80469 C 302.7825 205.79719 302.78606 205.7912 302.78906 205.7832 C 302.96764 205.35022 303.16841 204.92755 303.39062 204.51367 L 303.39062 204.51172 C 303.39592 204.50192 303.40125 204.49242 303.40625 204.48242 C 303.62812 204.07166 303.86982 203.66926 304.13477 203.27734 C 304.40637 202.87561 304.70073 202.48546 305.01758 202.10352 L 305.01758 202.10156 C 305.02718 202.08986 305.03883 202.07801 305.04883 202.06641 C 305.3571 201.69708 305.68637 201.33709 306.03711 200.98633 L 306.03711 200.98438 C 306.04991 200.97168 306.06337 200.95997 306.07617 200.94727 C 306.42468 200.60087 306.782 200.27658 307.14648 199.9707 C 307.17408 199.9475 307.20277 199.92534 307.23047 199.90234 C 307.60851 199.5893 307.99358 199.29318 308.38867 199.02344 C 308.79889 198.74337 309.21788 198.4873 309.64648 198.25391 C 310.07509 198.02052 310.51394 197.81171 310.96094 197.625 C 311.38965 197.44593 311.82585 197.28848 312.27148 197.15234 C 312.31076 197.14034 312.34927 197.12889 312.38867 197.11719 C 312.81405 196.99127 313.24877 196.88593 313.68945 196.79883 C 313.73259 196.79033 313.77506 196.78144 313.81836 196.77344 C 314.25875 196.69053 314.70849 196.62643 315.16406 196.58203 C 315.21064 196.57733 315.25593 196.57236 315.30273 196.56836 C 315.7587 196.52806 316.22228 196.50786 316.69336 196.50586 C 316.71766 196.50586 316.74123 196.50391 316.76562 196.50391 z M 128.82422 377.11328 L 134.52734 377.11328 C 142.31297 383.81258 155.34959 389.10913 173.63672 393.00195 C 189.02689 396.26102 204.55308 397.89062 220.21484 397.89062 C 236.05764 397.89062 251.62809 396.26102 266.92773 393.00195 C 285.12433 389.10913 298.16096 383.81258 306.03711 377.11328 L 311.74023 377.11328 C 292.72881 402.46183 262.2209 415.13477 220.21484 415.13477 C 178.29927 415.13477 147.83562 402.46183 128.82422 377.11328 z " />
  </g>
</svg>
