<?xml version="1.0" encoding="UTF-8" standalone="no"?>
<!-- Created with Inkscape (http://www.inkscape.org/) -->

<svg
   width="200mm"
   height="200mm"
   viewBox="0 0 200 200"
   version="1.1"
   id="svg303"
   inkscape:version="1.2.1 (9c6d41e, 2022-07-14)"
   sodipodi:docname="timeline.svg"
   xmlns:inkscape="http://www.inkscape.org/namespaces/inkscape"
   xmlns:sodipodi="http://sodipodi.sourceforge.net/DTD/sodipodi-0.dtd"
   xmlns:xlink="http://www.w3.org/1999/xlink"
   xmlns="http://www.w3.org/2000/svg"
   xmlns:svg="http://www.w3.org/2000/svg">
  <sodipodi:namedview
     id="namedview305"
     pagecolor="#ffffff"
     bordercolor="#000000"
     borderopacity="0.25"
     inkscape:showpageshadow="2"
     inkscape:pageopacity="0.0"
     inkscape:pagecheckerboard="0"
     inkscape:deskcolor="#d1d1d1"
     inkscape:document-units="mm"
     showgrid="false"
     inkscape:zoom="0.77504209"
     inkscape:cx="213.53679"
     inkscape:cy="409.01005"
     inkscape:window-width="1920"
     inkscape:window-height="1027"
     inkscape:window-x="0"
     inkscape:window-y="25"
     inkscape:window-maximized="0"
     inkscape:current-layer="layer1" />
  <defs
     id="defs300">
    <linearGradient
       inkscape:collect="always"
       id="linearGradient4294">
      <stop
         style="stop-color:#75675f;stop-opacity:1;"
         offset="0"
         id="stop4290" />
      <stop
         style="stop-color:#6f6864;stop-opacity:0.13626835;"
         offset="0.25"
         id="stop5154" />
      <stop
         style="stop-color:#6a6a6a;stop-opacity:1;"
         offset="0.5"
         id="stop5148" />
      <stop
         style="stop-color:#646c6f;stop-opacity:0.28092244;"
         offset="0.75"
         id="stop5150" />
      <stop
         style="stop-color:#5f6e75;stop-opacity:1;"
         offset="1"
         id="stop4292" />
    </linearGradient>
    <linearGradient
       inkscape:collect="always"
       id="linearGradient2832">
      <stop
         style="stop-color:#75675f;stop-opacity:0.40000001;"
         offset="0"
         id="stop2828" />
      <stop
         style="stop-color:#b59a6b;stop-opacity:0.04402516;"
         offset="0.5"
         id="stop4288" />
      <stop
         style="stop-color:#f5cd78;stop-opacity:0.66666669;"
         offset="1"
         id="stop2830" />
    </linearGradient>
    <linearGradient
       inkscape:collect="always"
       id="linearGradient1341">
      <stop
         style="stop-color:#78cbf5;stop-opacity:1;"
         offset="0"
         id="stop1337" />
      <stop
         style="stop-color:#f5a778;stop-opacity:1;"
         offset="1"
         id="stop1339" />
    </linearGradient>
    <linearGradient
       inkscape:collect="always"
       xlink:href="#linearGradient1341"
       id="linearGradient1343"
       x1="12"
       y1="402.00015"
       x2="1547"
       y2="402.00015"
       gradientUnits="userSpaceOnUse" />
    <linearGradient
       inkscape:collect="always"
       xlink:href="#linearGradient2832"
       id="linearGradient2834"
       x1="25.627584"
       y1="133.84258"
       x2="170.0069"
       y2="66.49881"
       gradientUnits="userSpaceOnUse" />
    <linearGradient
       inkscape:collect="always"
       xlink:href="#linearGradient4294"
       id="linearGradient4296"
       x1="25.627584"
       y1="133.84258"
       x2="170.0069"
       y2="66.49881"
       gradientUnits="userSpaceOnUse" />
  </defs>
  <g
     inkscape:label="Layer 1"
     inkscape:groupmode="layer"
     id="layer1">
    <g
       id="g509"
       transform="matrix(0.12362069,0,0,0.12362069,3.6376721,50.304463)">
      <path
         fill="none"
         stroke="#02063b"
         paint-order="fill stroke markers"
         d="m 20,525.26492 1,5.62924 1,5.55255 1,5.47259 1,5.38935 1,5.30291 1,5.21332 1,5.12063 1,5.02489 1,4.92616 1,4.8245 1,4.71997 1,4.61264 1,4.50256 1,4.3898 1,4.27443 1,4.15651 1,4.03613 1,3.91335 1,3.78823 1,3.66087 1,3.53132 1,3.39967 1,3.26601 1,3.1304 1,2.99292 1,2.85367 1,2.71273 1,2.57015 1,2.42607 1,2.28052 1,2.13364 1,1.98547 1,1.83613 1,1.6857 1,1.53425 1,1.38191 1,1.22873 1,1.07483 1,0.92029 1,0.76519 1,0.60965 1,0.45374 1,0.29757 1,0.14121 1,-0.0152 1,-0.17166 1,-0.32799 1,-0.48412 1,-0.63997 1,-0.79543 1,-0.95042 1,-1.10485 1,-1.25862 1,-1.41163 1,-1.56382 1,-1.71506 1,-1.8653 1,-2.01442 1,-2.16233 1,-2.30898 1,-2.45423 1,-2.59804 1,-2.74029 1,-2.88092 1,-3.01983 1,-3.15695 1,-3.29219 1,-3.42547 1,-3.55671 1,-3.68583 1,-3.81278 1,-3.93743 1,-4.05977 1,-4.17967 1,-4.29709 1,-4.41196 1,-4.5242 1,-4.63375 1,-4.74055 1,-4.84452 1,-4.94562 1,-5.04376 1,-5.13892 1,-5.23101 1,-5.31999 1,-5.40581 1,-5.48841 1,-5.56774 1,-5.64378 1,-5.71644 1,-5.7857 1,-5.85153 1,-5.91388 1,-5.9727 1,-6.02798 1,-6.07967 1,-6.12773 1,-6.17217 1,-6.21292 1,-6.24997 1,-6.28332 1,-6.31293 1,-6.33877 1,-6.36085 1,-6.37914 1,-6.39364 1,-6.40434 1,-6.41122 1,-6.4143 1,-6.41356 1,-6.40899 1,-6.40063 1,-6.38845 1,-6.37247 1,-6.3527 1,-6.32915 1,-6.30184 1,-6.27078 1,-6.23599 1,-6.19748 1,-6.1553 1,-6.10945 1,-6.05997 1,-6.00688 1,-5.95021 1,-5.89002 1,-5.82631 1,-5.75914 1,-5.68855 1,-5.61456 1,-5.53725 1,-5.45663 1,-5.37277 1,-5.28571 1,-5.19552 1,-5.10222 1,-5.0059 1,-4.90659 1,-4.80438 1,-4.69929 1,-4.59142 1,-4.48081 1,-4.36754 1,-4.25167 1,-4.13327 1,-4.01241 1,-3.88916 1,-3.76361 1,-3.63581 1,-3.50585 1,-3.37381 1,-3.23975 1,-3.10378 1,-2.96595 1,-2.82636 1,-2.68508 1,-2.54222 1,-2.39784 1,-2.25203 1,-2.10489 1,-1.95648 1,-1.80692 1,-1.65629 1,-1.50466 1,-1.35215 1,-1.19882 1,-1.04479 1,-0.89013 1,-0.73494 1,-0.57932 1,-0.42335 1,-0.26713 1,-0.11076 1,0.0457 1,0.20211 1,0.35841 1,0.51449 1,0.67027 1,0.82565 1,0.98053 1,1.13484 1,1.28847 1,1.44134 1,1.59334 1,1.7444 1,1.89441 1,2.04332 1,2.19099 1,2.33736 1,2.48235 1,2.62586 1,2.76781 1,2.9081 1,3.04667 1,3.18343 1,3.3183 1,3.45118 1,3.58202 1,3.71072 1,3.83723 1,3.96144 1,4.0833 1,4.20273 1,4.31966 1,4.43402 1,4.54574 1,4.65477 1,4.76101 1,4.86444 1,4.96495 1,5.06253 1,5.15709 1,5.24858 1,5.33695 1,5.42214 1,5.50412 1,5.58281 1,5.65818 1,5.7302 1,5.79879 1,5.86395 1,5.9256 1,5.98375 1,6.03832 1,6.08931 1,6.13667 1,6.18039 1,6.22043 1,6.25676 1,6.28937 1,6.31825 1,6.34337 1,6.36471 1,6.38226 1,6.39602 1,6.40598 1,6.41212 1,6.41446 1,6.41296 1,6.40767 1,6.39855 1,6.38564 1,6.36891 1,6.34842 1,6.32413 1,6.29608 1,6.2643 1,6.22878 1,6.18956 1,6.14666 1,6.1001 1,6.04991 1,5.99613 1,5.93877 1,5.87788 1,5.81351 1,5.74566 1,5.6744 1,5.59977 1,5.52181 1,5.44056 1,5.35607 1,5.26839 1,5.17759 1,5.08371 1,4.9868 1,4.88692 1,4.78413 1,4.67851 1,4.57009 1,4.45897 1,4.34518 1,4.22881 1,4.10993 1,3.9886 1,3.8649 1,3.7389 1,3.61067 1,3.4803 1,3.34787 1,3.21342 1,3.07708 1,2.93891 1,2.79898 1,2.6574 1,2.51422 1,2.36956 1,2.22348 1,2.07609 1,1.92745 1,1.77768 1,1.62683 1,1.47504 1,1.32235 1,1.16889 1,1.01472 1,0.85995 1,0.70468 1,0.54897 1,0.39296 1,0.23669 1,0.0803 1,-0.0761 1,-0.23256 1,-0.38881 1,-0.54485 1,-0.70056 1,-0.85584 1,-1.01063 1,-1.16481 1,-1.31829 1,-1.471 1,-1.62283 1,-1.77369 1,-1.9235 1,-2.07217 1,-2.21959 1,-2.36571 1,-2.51041 1,-2.65362 1,-2.79525 1,-2.93522 1,-3.07345 1,-3.20984 1,-3.34432 1,-3.47682 1,-3.60725 1,-3.73553 1,-3.86159 1,-3.98535 1,-4.10675 1,-4.22569 1,-4.34213 1,-4.45599 1,-4.56718 1,-4.67567 1,-4.78138 1,-4.88423 1,-4.98419 1,-5.08117 1,-5.17515 1,-5.26603 1,-5.35379 1,-5.43836 1,-5.51969 1,-5.59775 1,-5.67247 1,-5.74382 1,-5.81175 1,-5.87622 1,-5.93721 1,-5.99465 1,-6.04853 1,-6.09882 1,-6.14547 1,-6.18847 1,-6.22779 1,-6.26341 1,-6.29529 1,-6.32343 1,-6.34782 1,-6.36842 1,-6.38524 1,-6.39826 1,-6.40748 1,-6.41287 1,-6.41446 1,-6.41224 1,-6.40619 1,-6.39633 1,-6.38268 1,-6.36522 1,-6.34398 1,-6.31897 1,-6.29019 1,-6.25767 1,-6.22143 1,-6.1815 1,-6.13788 1,-6.09061 1,-6.03972 1,-5.98524 1,-5.92719 1,-5.86563 1,-5.80056 1,-5.73206 1,-5.66013 1,-5.58485 1,-5.50624 1,-5.42436 1,-5.33925 1,-5.25096 1,-5.15955 1,-5.06508 1,-4.96758 1,-4.86713 1,-4.76379 1,-4.65762 1,-4.54866 1,-4.43702 1,-4.32272 1,-4.20586 1,-4.0865 1,-3.9647 1,-3.84054 1,-3.71411 1,-3.58546 1,-3.45467 1,-3.32184 1,-3.18703 1,-3.05032 1,-2.9118 1,-2.77154 1,-2.62964 1,-2.48617 1,-2.34123 1,-2.19488 1,-2.04724 1,-1.89838 1,-1.74839 1,-1.59736 1,-1.44537 1,-1.29253 1,-1.13892 1,-0.98463 1,-0.82976 1,-0.67439 1,-0.51862 1,-0.36255 1,-0.20625 1,-0.0498 1,0.1066 1,0.263 1,0.41921 1,0.57519 1,0.73083 1,0.88602 1,1.0407 1,1.19475 1,1.34809 1,1.50064 1,1.65228 1,1.80294 1,1.95254 1,2.10097 1,2.24815 1,2.39399 1,2.53841 1,2.68133 1,2.82263 1,2.96228 1,3.10014 1,3.23618 1,3.37028 1,3.50238 1,3.63239 1,3.76025 1,3.88587 1,4.00918 1,4.1301 1,4.24856 1,4.36451 1,4.47784 1,4.58852 1,4.69647 1,4.80163 1,4.90392 1,5.00331 1,5.09971 1,5.19308 1,5.28337 1,5.3705 1,5.45445 1,5.53515 1,5.61256 1,5.68663 1,5.75731 1,5.82458 1,5.88837 1,5.94867 1,6.00542 1,6.05861 1,6.10819 1,6.15413 1,6.19641 1,6.23502 1,6.2699 1,6.30107 1,6.32848 1,6.35212 1,6.372 1,6.38807 1,6.40035 1,6.40883 1,6.41348 1,6.41433 1,6.41135 1,6.40457 1,6.39398 1,6.37957 1,6.36139 1,6.3394 1,6.31366 1,6.28415 1,6.25091 1,6.21395 1,6.17329 1,6.12896 1,6.08098 1,6.0294 1,5.97421 1,5.91548 1,5.85323 1,5.7875 1,5.71831 1,5.64575 1,5.5698 1,5.49055 1,5.40804 1,5.32231 1,5.23341 1,5.14139 1,5.04633 1,4.94825 1,4.84724 1,4.74334 1,4.63661 1,4.52714 1,4.41497 1,4.30017 1,4.18281 1,4.06297 1,3.94071 1,3.81611 1,3.68923 1,3.56015 1,3.42898 1,3.29574 1,3.16056 1,3.02349 1,2.88462 1,2.74404 1,2.60183 1,2.45806 1,2.31284 1,2.16624 1,2.01835 1,1.86926 1,1.71906 1,1.56783 1,1.41568 1,1.26268 1,1.10893 1,0.95452 1,0.79955 1,0.64409 1,0.48825 1,0.33213 1,0.17581 1,0.0194 1,-0.13706 1,-0.29343 1,-0.4496 1,-0.60553 1,-0.76108 1,-0.91618 1,-1.07074 1,-1.22467 1,-1.37786 1,-1.53023 1,-1.68169 1,-1.83216 1,-1.98153 1,-2.12973 1,-2.27665 1,-2.42223 1,-2.56635 1,-2.70897 1,-2.84996 1,-2.98926 1,-3.12677 1,-3.26244 1,-3.39616 1,-3.52786 1,-3.65746 1,-3.78489 1,-3.91006 1,-4.03291 1,-4.15336 1,-4.27134 1,-4.38677 1,-4.49961 1,-4.60975 1,-4.71717 1,-4.82177 1,-4.9235 1,-5.02231 1,-5.11813 1,-5.21091 1,-5.30058 1,-5.3871 1,-5.47042 1,-5.55048 1,-5.62724 1,-5.70066 1,-5.77068 1,-5.83727 1,-5.90039 1,-5.96 1,-6.01605 1,-6.06855 1,-6.11741 1,-6.16266 1,-6.20422 1,-6.2421 1,-6.27626 1,-6.3067 1,-6.33338 1,-6.35629 1,-6.37542 1,-6.39076 1,-6.4023 1,-6.41003 1,-6.41395 1,-6.41405 1,-6.41033 1,-6.40281 1,-6.39147 1,-6.37633 1,-6.3574 1,-6.33468 1,-6.30821 1,-6.27797 1,-6.244 1,-6.20633 1,-6.16494 1,-6.11991 1,-6.07122 1,-6.01893 1,-5.96306 1,-5.90363 1,-5.8407 1,-5.7743 1,-5.70445 1,-5.63122 1,-5.55463 1,-5.47475 1,-5.39159 1,-5.30525 1,-5.21573 1,-5.12312 1,-5.02747 1,-4.92881 1,-4.82723 1,-4.72278 1,-4.61552 1,-4.50551 1,-4.39282 1,-4.27752 1,-4.15967 1,-4.03935 1,-3.91663 1,-3.79158 1,-3.66427 1,-3.53478 1,-3.40319 1,-3.26957 1,-3.13402 1,-2.99659 1,-2.85738 1,-2.71648 1,-2.57395 1,-2.4299 1,-2.2844 1,-2.13755 1,-1.98941 1,-1.8401 1,-1.68969 1,-1.53828 1,-1.38596 1,-1.2328 1,-1.07891 1,-0.92439 1,-0.76931 1,-0.61378 1,-0.45788 1,-0.3017 1,-0.14535 1,0.0111 1,0.16752 1,0.32385 1,0.47999 1,0.63584 1,0.79132 1,0.94632 1,1.10076 1,1.25455 1,1.4076 1,1.55979 1,1.71107 1,1.86133 1,2.01048 1,2.15844 1,2.3051 1,2.45041 1,2.59424 1,2.73655 1,2.87721 1,3.01618 1,3.15334 1,3.28863 1,3.42196 1,3.55326 1,3.68245 1,3.80943 1,3.93417 1,4.05655 1,4.17652 1,4.29402 1,4.40895 1,4.52126 1,4.63089 1,4.73775 1,4.84181 1,4.94297 1,5.0412 1,5.13644 1,5.22861 1,5.31767 1,5.40358 1,5.48626 1,5.56569 1,5.6418 1,5.71456 1,5.78391 1,5.84983 1,5.91227 1,5.9712 1,6.02655 1,6.07835 1,6.12651 1,6.17103 1,6.21189 1,6.24904 1,6.28249 1,6.31218 1,6.33814 1,6.36031 1,6.37871 1,6.3933 1,6.40411 1,6.41109 1,6.41426 1,6.41363 1,6.40916 1,6.4009 1,6.38882 1,6.37294 1,6.35328 1,6.32982 1,6.30261 1,6.27165 1,6.23696 1,6.19856 1,6.15646 1,6.11071 1,6.06133 1,6.00833 1,5.95176 1,5.89166 1,5.82804 1,5.76097 1,5.69045 1,5.61657 1,5.53934 1,5.45881 1,5.37503 1,5.28806 1,5.19795 1,5.10473 1,5.00849 1,4.90926 1,4.80712 1,4.70212 1,4.59431 1,4.48377 1,4.37058 1,4.25477 1,4.13644 1,4.01564 1,3.89246 1,3.76697 1,3.63922 1,3.50932 1,3.37734 1,3.24333 1,3.1074 1,2.96962 1,2.83008 1,2.68885 1,2.54602 1,2.40169 1,2.25591 1,2.1088 1,1.96043 1,1.8109 1,1.66029 1,1.50869 1,1.3562 1,1.20289 1,1.04888 1,0.89423 1,0.73906 1,0.58345 1,0.42749 1,0.27127 1,0.1149 1,-0.0416 1,-0.19796 1,-0.35427 1,-0.51036 1,-0.66614 1,-0.82154 1,-0.97644 1,-1.13076 1,-1.28441 1,-1.4373 1,-1.58932 1,-1.74041 1,-1.89046 1,-2.03938 1,-2.1871 1,-2.3335 1,-2.47853 1,-2.62208 1,-2.76406 1,-2.90441 1,-3.04302 1,-3.17983 1,-3.31475 1,-3.44769 1,-3.57858 1,-3.70734 1,-3.8339 1,-3.95818 1,-4.0801 1,-4.1996 1,-4.3166 1,-4.43102 1,-4.54282 1,-4.65191 1,-4.75824 1,-4.86173 1,-4.96233 1,-5.05998 1,-5.15462 1,-5.2462 1,-5.33465 1,-5.41993 1,-5.50198 1,-5.58077 1,-5.65623 1,-5.72833 1,-5.79702 1,-5.86227 1,-5.92401 1,-5.98225 1,-6.03693 1,-6.088 1,-6.13547 1,-6.17928 1,-6.21941 1,-6.25584 1,-6.28856 1,-6.31754 1,-6.34275 1,-6.36419 1,-6.38185 1,-6.3957 1,-6.40577 1,-6.41201 1,-6.41443 1,-6.41306 1,-6.40785 1,-6.39885 1,-6.38602 1,-6.36941 1,-6.34901 1,-6.32482 1,-6.29688 1,-6.26518 1,-6.22977 1,-6.19065 1,-6.14784 1,-6.10138 1,-6.05129 1,-5.9976 1,-5.94034 1,-5.87954 1,-5.81525 1,-5.74751 1,-5.67633 1,-5.60179 1,-5.52392 1,-5.44275 1,-5.35835 1,-5.27076 1,-5.18004 1,-5.08623 1,-4.9894 1,-4.8896 1,-4.7869 1,-4.68134 1,-4.573 1,-4.46195 1,-4.34822 1,-4.23193 1,-4.11311 1,-3.99185 1,-3.86821 1,-3.74226 1,-3.6141 1,-3.48379 1,-3.35139 1,-3.21702 1,-3.08071 1,-2.94259 1,-2.80272 1,-2.66116 1,-2.51804 1,-2.37341 1,-2.22737 1,-2.08001 1,-1.9314 1,-1.78166 1,-1.63085 1,-1.47906 1,-1.32641 1,-1.17296 1,-1.01882 1,-0.86406 1,-0.70879 1,-0.55311 1,-0.39709 1,-0.24084 1,-0.0844 1,0.072 1,0.22841 1,0.38468 1,0.54072 1,0.69643 1,0.85174 1,1.00653 1,1.16073 1,1.31424 1,1.46697 1,1.61882 1,1.76971 1,1.91954 1,2.06824 1,2.21571 1,2.36185 1,2.50659 1,2.64985 1,2.79152 1,2.93154 1,3.0698 1,3.20625 1,3.34079 1,3.47333 1,3.60383 1,3.73216 1,3.85827 1,3.98211 1,4.10356 1,4.22258 1,4.33907 1,4.453 1,4.56428 1,4.67283 1,4.77861 1,4.88154 1,4.98158 1,5.07865 1,5.17269 1,5.26367 1,5.3515 1,5.43616 1,5.51758 1,5.59572 1,5.67054 1,5.74197 1,5.81 1,5.87456 1,5.93563 1,5.99318 1,6.04715 1,6.09753 1,6.14428 1,6.18738 1,6.2268 1,6.26251 1,6.29449 1,6.32274 1,6.34722 1,6.36793 1,6.38484 1,6.39796 1,6.40728 1,6.41278 1,6.41447 1,6.41234 1,6.4064 1,6.39665 1,6.38309 1,6.36573 1,6.34459 1,6.31968 1,6.291 1,6.25858 1,6.22244 1,6.1826 1,6.13909 1,6.09191 1,6.04111 1,5.98673 1,5.92878 1,5.8673 1,5.80233 1,5.73391 1,5.66209 1,5.58689 1,5.50836 1,5.42657 1,5.34155 1,5.25334 1,5.16201 1,5.06762 1,4.9702 1,4.86983 1,4.76657 1,4.66046 1,4.55159 1,4.44001 1,4.32578 1,4.20899 1,4.08969 1,3.96796 1,3.84386 1,3.71749 1,3.58889 1,3.45817 1,3.32538 1,3.19063 1,3.05396 1,2.91549 1,2.77528 1,2.63342 1,2.49 1,2.34508 1,2.19878 1,2.05117 1,1.90234 1,1.75237 1,1.60137 1,1.44941 1,1.29659 1,1.143 1,0.98873 1,0.83387 1,0.67851 1,0.52275 1,0.36669 1,0.21039 1,0.054 1,-0.10246 1,-0.25885 1,-0.41508 1,-0.57107 1,-0.7267 1,-0.88192 1,-1.03661 1,-1.19068 1,-1.34404 1,-1.4966 1,-1.64827 1,-1.79897 1,-1.94859 1,-2.09705 1,-2.24427 1,-2.39015 1,-2.5346 1,-2.67756 1,-2.81891 1,-2.9586 1,-3.09651 1,-3.2326 1,-3.36675 1,-3.49891 1,-3.62898 1,-3.75689 1,-3.88257 1,-4.00594 1,-4.12693 1,-4.24546 1,-4.36146 1,-4.47487 1,-4.58563 1,-4.69365 1,-4.79887 1,-4.90125 1,-5.00071 1,-5.0972 1,-5.19065 1,-5.28101 1,-5.36824 1,-5.45227 1,-5.53305 1,-5.61055 1,-5.68471 1,-5.75549 1,-5.82284 1,-5.88672 1,-5.94712 1,-6.00396 1,-6.05725 1,-6.10692 1,-6.15296 1,-6.19534 1,-6.23404 1,-6.26903 1,-6.30029 1,-6.3278 1,-6.35155 1,-6.37151 1,-6.3877 1,-6.40008 1,-6.40865 1,-6.4134 1,-6.41436 1,-6.41148 1,-6.4048 1,-6.3943 1,-6.38001 1,-6.36191 1,-6.34004 1,-6.31439 1,-6.28498 1,-6.25184 1,-6.21497 1,-6.17442 1,-6.13018 1,-6.0823 1,-6.03081 1,-5.97572 1,-5.91708 1,-5.85493 1,-5.78928 1,-5.72019 1,-5.64771 1,-5.57186 1,-5.4927 1,-5.41026 1,-5.32462 1,-5.2358 1,-5.14388 1,-5.04888 1,-4.95089 1,-4.84995 1,-4.74613 1,-4.63948 1,-4.53008 1,-4.41797 1,-4.30324 1,-4.18596 1,-4.06618 1,-3.94397 1,-3.81944 1,-3.69262 1,-3.5636 1,-3.43248 1,-3.2993 1,-3.16416 1,-3.02715 1,-2.88832 1,-2.74779 1,-2.60561 1,-2.46189 1,-2.31671 1,-2.17014 1,-2.02228 1,-1.87323 1,-1.72305 1,-1.57185 1,-1.41973 1,-1.26674 1,-1.11301 1,-0.95862 1,-0.80366 1,-0.64821 1,-0.49239 1,-0.33627 1,-0.17995 1,-0.0235 1,0.13292 1,0.28929 1,0.44547 1,0.6014 1,0.75696 1,0.91208 1,1.06666 1,1.22059 1,1.37381 1,1.52621 1,1.67769 1,1.82819 1,1.97759 1,2.12581 1,2.27278 1,2.41839 1,2.56256 1,2.7052 1,2.84625 1,2.98559 1,3.12316 1,3.25887 1,3.39264 1,3.5244 1,3.65405 1,3.78154 1,3.90677 1,4.02969 1,4.1502 1,4.26824 1,4.38375 1,4.49665 1,4.60688 1,4.71435 1,4.81904 1,4.92084 1,5.01973 1,5.11563 1,5.20849 1,5.29825 1,5.38485 1,5.46825 1,5.5484 1,5.62525 1,5.69876 1,5.76887 1,5.83555 1,5.89876 1,5.95846 1,6.01462 1,6.0672 1,6.11617 1,6.1615 1,6.20317 1,6.24114 1,6.27541 1,6.30594 1,6.33272 1,6.35573 1,6.37497 1,6.3904 1,6.40205 1,6.40987 1,6.41389 1,6.4141 1,6.41048 1,6.40305 1,6.39182 1,6.37678 1,6.35795 1,6.33534 1,6.30895 1,6.27882 1,6.24496 1,6.20736 1,6.16609 1,6.12115 1,6.07256 1,6.02036 1,5.96458 1,5.90526 1,5.84241 1,5.7761 1,5.70635 1,5.6332 1,5.5567 1,5.47691 1,5.39384 1,5.30757 1,5.21815 1,5.12561 1,5.03004 1,4.93147 1,4.82996 1,4.72558 1,4.61839 1,4.50846 1,4.39584 1,4.28061 1,4.16283 1,4.04257 1,3.91991 1,3.79492 1,3.66767 1,3.53824 1,3.4067 1,3.27314 1,3.13763 1,3.00025 1,2.8611 1,2.72023 1,2.57775 1,2.43373 1,2.28828 1,2.14145 1,1.99335 1,1.84407 1,1.6937 1,1.5423 1,1.39 1,1.23687 1,1.083 1,0.92849 1,0.77343 1,0.6179 1,0.46201 1,0.30584 1,0.1495 1,-0.007 1,-0.16337 1,-0.31971 1,-0.47586 1,-0.63172 1,-0.7872 1,-0.94222 1,-1.09668 1,-1.25049 1,-1.40355 1,-1.55577 1,-1.70708 1,-1.85736 1,-2.00654 1,-2.15453 1,-2.30124 1,-2.44657 1,-2.59046 1,-2.73279 1,-2.87352 1,-3.01251 1,-3.14973 1,-3.28507 1,-3.41846 1,-3.54981 1,-3.67905 1,-3.8061 1,-3.93089 1,-4.05334 1,-4.17338 1,-4.29093 1,-4.40594 1,-4.51832 1,-4.62802 1,-4.73495 1,-4.83909 1,-4.94033 1,-5.03864 1,-5.13395 1,-5.22621 1,-5.31535 1,-5.40134 1,-5.48412 1,-5.56362 1,-5.63983 1,-5.71268 1,-5.78212 1,-5.84813 1,-5.91066 1,-5.96968 1,-6.02513 1,-6.07702 1,-6.12528 1,-6.1699 1,-6.21085 1,-6.24811 1,-6.28165 1,-6.31145 1,-6.33749 1,-6.35978 1,-6.37826 1,-6.39297 1,-6.40387 1,-6.41096 1,-6.41423 1,-6.41369 1,-6.40933 1,-6.40116 1,-6.38919 1,-6.37341 1,-6.35385 1,-6.33049 1,-6.30339 1,-6.27251 1,-6.23793 1,-6.19962 1,-6.15763 1,-6.11197 1,-6.06267 1,-6.00979 1,-5.9533 1,-5.8933 1,-5.82977 1,-5.76279 1,-5.69237 1,-5.61857 1,-5.54142 1,-5.46099 1,-5.37729 1,-5.29041 1,-5.20037 1,-5.10724 1,-5.01108 1,-4.91193 1,-4.80986 1,-4.70494 1,-4.5972 1,-4.48674 1,-4.37361 1,-4.25787 1,-4.1396 1,-4.01888 1,-3.89575 1,-3.77032 1,-3.64264 1,-3.51279 1,-3.38086 1,-3.2469 1,-3.11103 1,-2.9733 1,-2.83379 1,-2.69262 1,-2.54983 1,-2.40552 1,-2.25979 1,-2.11272 1,-1.96437 1,-1.81488 1,-1.66429 1,-1.51272 1,-1.36025 1,-1.20696 1,-1.05297 1,-0.89834 1,-0.74318 1,-0.58757 1,-0.43163 1,-0.27541 1,-0.11904 1,0.0374 1,0.19382 1,0.35013 1,0.50623 1,0.66202 1,0.81743 1,0.97234 1,1.12668 1,1.28035 1,1.43325 1,1.58531 1,1.73642 1,1.8865 1,2.03545 1,2.1832 1,2.32964 1,2.47471 1,2.61829 1,2.76032 1,2.90071 1,3.03938 1,3.17623 1,3.31119 1,3.4442 1,3.57514 1,3.70396 1,3.83057 1,3.95492 1,4.0769 1,4.19647 1,4.31353 1,4.42802 1,4.5399 1,4.64905 1,4.75546 1,4.85902 1,4.9597 1,5.05744 1,5.15215 1,5.24381 1,5.33235 1,5.41771 1,5.49985 1,5.57873 1,5.65427 1,5.72646 1,5.79525 1,5.86058 1,5.92243 1,5.98075 1,6.03552 1,6.0867 1,6.13426 1,6.17816 1,6.21839 1,6.25493 1,6.28774 1,6.31682"
         stroke-linecap="round"
         stroke-linejoin="round"
         stroke-miterlimit="10"
         stroke-width="16"
         id="path507"
         style="stroke:url(#linearGradient1343)" />
    </g>
    <rect
       style="fill:url(#linearGradient2834);stroke-width:2;fill-opacity:1;stroke:url(#linearGradient4296);stroke-dasharray:none"
       id="rect711"
       width="136.55173"
       height="88.417244"
       x="26.627584"
       y="55.791378" />
  </g>
</svg>
